solid BaseTestes_Valor predeterminado_sldprt
   facet normal 0.000000e+000 1.000000e+000 0.000000e+000
      outer loop
         vertex -1.889835e+000 0.000000e+000 7.257997e+000
         vertex -3.089259e+000 0.000000e+000 6.834214e+000
         vertex -5.000000e+001 0.000000e+000 5.000000e+001
      endloop
   endfacet
   facet normal 0.000000e+000 1.000000e+000 0.000000e+000
      outer loop
         vertex -5.000000e+001 0.000000e+000 5.000000e+001
         vertex -3.089259e+000 0.000000e+000 6.834214e+000
         vertex -4.199811e+000 0.000000e+000 6.213822e+000
      endloop
   endfacet
   facet normal 0.000000e+000 1.000000e+000 0.000000e+000
      outer loop
         vertex -4.199811e+000 0.000000e+000 6.213822e+000
         vertex -5.189542e+000 0.000000e+000 5.414671e+000
         vertex -5.000000e+001 0.000000e+000 5.000000e+001
      endloop
   endfacet
   facet normal 0.000000e+000 1.000000e+000 0.000000e+000
      outer loop
         vertex -5.000000e+001 0.000000e+000 5.000000e+001
         vertex -5.189542e+000 0.000000e+000 5.414671e+000
         vertex -6.029978e+000 0.000000e+000 4.459749e+000
      endloop
   endfacet
   facet normal 0.000000e+000 1.000000e+000 0.000000e+000
      outer loop
         vertex -5.000000e+001 0.000000e+000 5.000000e+001
         vertex -6.029978e+000 0.000000e+000 4.459749e+000
         vertex -6.696944e+000 0.000000e+000 3.376528e+000
      endloop
   endfacet
   facet normal 0.000000e+000 1.000000e+000 0.000000e+000
      outer loop
         vertex 7.171250e+000 0.000000e+000 2.196171e+000
         vertex 6.696944e+000 0.000000e+000 3.376528e+000
         vertex 5.000000e+001 0.000000e+000 5.000000e+001
      endloop
   endfacet
   facet normal 0.000000e+000 1.000000e+000 0.000000e+000
      outer loop
         vertex 5.000000e+001 0.000000e+000 5.000000e+001
         vertex 6.696944e+000 0.000000e+000 3.376528e+000
         vertex 6.029978e+000 0.000000e+000 4.459749e+000
      endloop
   endfacet
   facet normal 0.000000e+000 1.000000e+000 0.000000e+000
      outer loop
         vertex 5.000000e+001 0.000000e+000 5.000000e+001
         vertex 6.029978e+000 0.000000e+000 4.459749e+000
         vertex 5.189542e+000 0.000000e+000 5.414671e+000
      endloop
   endfacet
   facet normal 0.000000e+000 1.000000e+000 0.000000e+000
      outer loop
         vertex 5.189542e+000 0.000000e+000 5.414671e+000
         vertex 4.199811e+000 0.000000e+000 6.213822e+000
         vertex 5.000000e+001 0.000000e+000 5.000000e+001
      endloop
   endfacet
   facet normal 0.000000e+000 1.000000e+000 0.000000e+000
      outer loop
         vertex 5.000000e+001 0.000000e+000 5.000000e+001
         vertex 4.199811e+000 0.000000e+000 6.213822e+000
         vertex 3.089259e+000 0.000000e+000 6.834214e+000
      endloop
   endfacet
   facet normal 0.000000e+000 1.000000e+000 0.000000e+000
      outer loop
         vertex 5.000000e+001 0.000000e+000 5.000000e+001
         vertex 3.089259e+000 0.000000e+000 6.834214e+000
         vertex 1.889835e+000 0.000000e+000 7.257997e+000
      endloop
   endfacet
   facet normal 0.000000e+000 1.000000e+000 0.000000e+000
      outer loop
         vertex 1.889835e+000 0.000000e+000 7.257997e+000
         vertex 6.360444e-001 0.000000e+000 7.472981e+000
         vertex 5.000000e+001 0.000000e+000 5.000000e+001
      endloop
   endfacet
   facet normal 0.000000e+000 1.000000e+000 0.000000e+000
      outer loop
         vertex 5.000000e+001 0.000000e+000 5.000000e+001
         vertex 6.360444e-001 0.000000e+000 7.472981e+000
         vertex 2.755455e-015 0.000000e+000 7.500000e+000
      endloop
   endfacet
   facet normal 0.000000e+000 1.000000e+000 0.000000e+000
      outer loop
         vertex 5.000000e+001 0.000000e+000 5.000000e+001
         vertex 2.755455e-015 0.000000e+000 7.500000e+000
         vertex -5.000000e+001 0.000000e+000 5.000000e+001
      endloop
   endfacet
   facet normal 0.000000e+000 1.000000e+000 0.000000e+000
      outer loop
         vertex -5.000000e+001 0.000000e+000 5.000000e+001
         vertex 2.755455e-015 0.000000e+000 7.500000e+000
         vertex -6.360444e-001 0.000000e+000 7.472981e+000
      endloop
   endfacet
   facet normal 0.000000e+000 1.000000e+000 0.000000e+000
      outer loop
         vertex -5.000000e+001 0.000000e+000 5.000000e+001
         vertex -6.360444e-001 0.000000e+000 7.472981e+000
         vertex -1.889835e+000 0.000000e+000 7.257997e+000
      endloop
   endfacet
   facet normal 0.000000e+000 1.000000e+000 0.000000e+000
      outer loop
         vertex -6.696944e+000 0.000000e+000 3.376528e+000
         vertex -7.171250e+000 0.000000e+000 2.196171e+000
         vertex -5.000000e+001 0.000000e+000 5.000000e+001
      endloop
   endfacet
   facet normal 0.000000e+000 1.000000e+000 0.000000e+000
      outer loop
         vertex -5.000000e+001 0.000000e+000 5.000000e+001
         vertex -7.171250e+000 0.000000e+000 2.196171e+000
         vertex -7.439253e+000 0.000000e+000 9.526336e-001
      endloop
   endfacet
   facet normal 0.000000e+000 1.000000e+000 0.000000e+000
      outer loop
         vertex -5.000000e+001 0.000000e+000 5.000000e+001
         vertex -7.439253e+000 0.000000e+000 9.526336e-001
         vertex -5.000000e+001 0.000000e+000 -5.000000e+001
      endloop
   endfacet
   facet normal 0.000000e+000 1.000000e+000 0.000000e+000
      outer loop
         vertex -5.000000e+001 0.000000e+000 -5.000000e+001
         vertex -7.439253e+000 0.000000e+000 9.526336e-001
         vertex -7.493242e+000 0.000000e+000 -3.183090e-001
      endloop
   endfacet
   facet normal 0.000000e+000 1.000000e+000 0.000000e+000
      outer loop
         vertex -5.000000e+001 0.000000e+000 -5.000000e+001
         vertex -7.493242e+000 0.000000e+000 -3.183090e-001
         vertex -7.331664e+000 0.000000e+000 -1.580095e+000
      endloop
   endfacet
   facet normal 0.000000e+000 1.000000e+000 0.000000e+000
      outer loop
         vertex -7.331664e+000 0.000000e+000 -1.580095e+000
         vertex -6.959168e+000 0.000000e+000 -2.796424e+000
         vertex -5.000000e+001 0.000000e+000 -5.000000e+001
      endloop
   endfacet
   facet normal 0.000000e+000 1.000000e+000 0.000000e+000
      outer loop
         vertex -5.000000e+001 0.000000e+000 -5.000000e+001
         vertex -6.959168e+000 0.000000e+000 -2.796424e+000
         vertex -6.386469e+000 0.000000e+000 -3.932305e+000
      endloop
   endfacet
   facet normal 0.000000e+000 1.000000e+000 0.000000e+000
      outer loop
         vertex -5.000000e+001 0.000000e+000 -5.000000e+001
         vertex -6.386469e+000 0.000000e+000 -3.932305e+000
         vertex -5.630043e+000 0.000000e+000 -4.955060e+000
      endloop
   endfacet
   facet normal 0.000000e+000 1.000000e+000 0.000000e+000
      outer loop
         vertex -5.630043e+000 0.000000e+000 -4.955060e+000
         vertex -4.711650e+000 0.000000e+000 -5.835268e+000
         vertex -5.000000e+001 0.000000e+000 -5.000000e+001
      endloop
   endfacet
   facet normal 0.000000e+000 1.000000e+000 0.000000e+000
      outer loop
         vertex -5.000000e+001 0.000000e+000 -5.000000e+001
         vertex -4.711650e+000 0.000000e+000 -5.835268e+000
         vertex -3.657712e+000 0.000000e+000 -6.547606e+000
      endloop
   endfacet
   facet normal 0.000000e+000 1.000000e+000 0.000000e+000
      outer loop
         vertex -5.000000e+001 0.000000e+000 -5.000000e+001
         vertex -3.657712e+000 0.000000e+000 -6.547606e+000
         vertex -2.498549e+000 0.000000e+000 -7.071581e+000
      endloop
   endfacet
   facet normal 0.000000e+000 1.000000e+000 0.000000e+000
      outer loop
         vertex 2.498549e+000 0.000000e+000 -7.071581e+000
         vertex 3.657712e+000 0.000000e+000 -6.547606e+000
         vertex 5.000000e+001 0.000000e+000 -5.000000e+001
      endloop
   endfacet
   facet normal 0.000000e+000 1.000000e+000 0.000000e+000
      outer loop
         vertex 5.000000e+001 0.000000e+000 -5.000000e+001
         vertex 3.657712e+000 0.000000e+000 -6.547606e+000
         vertex 4.711650e+000 0.000000e+000 -5.835268e+000
      endloop
   endfacet
   facet normal 0.000000e+000 1.000000e+000 0.000000e+000
      outer loop
         vertex 4.711650e+000 0.000000e+000 -5.835268e+000
         vertex 5.630043e+000 0.000000e+000 -4.955060e+000
         vertex 5.000000e+001 0.000000e+000 -5.000000e+001
      endloop
   endfacet
   facet normal 0.000000e+000 1.000000e+000 0.000000e+000
      outer loop
         vertex 5.000000e+001 0.000000e+000 -5.000000e+001
         vertex 5.630043e+000 0.000000e+000 -4.955060e+000
         vertex 6.386469e+000 0.000000e+000 -3.932305e+000
      endloop
   endfacet
   facet normal 0.000000e+000 1.000000e+000 0.000000e+000
      outer loop
         vertex 5.000000e+001 0.000000e+000 -5.000000e+001
         vertex 6.386469e+000 0.000000e+000 -3.932305e+000
         vertex 6.959168e+000 0.000000e+000 -2.796424e+000
      endloop
   endfacet
   facet normal 0.000000e+000 1.000000e+000 0.000000e+000
      outer loop
         vertex -2.498549e+000 0.000000e+000 -7.071581e+000
         vertex -1.267506e+000 0.000000e+000 -7.392119e+000
         vertex -5.000000e+001 0.000000e+000 -5.000000e+001
      endloop
   endfacet
   facet normal 0.000000e+000 1.000000e+000 0.000000e+000
      outer loop
         vertex -5.000000e+001 0.000000e+000 -5.000000e+001
         vertex -1.267506e+000 0.000000e+000 -7.392119e+000
         vertex 0.000000e+000 0.000000e+000 -7.500000e+000
      endloop
   endfacet
   facet normal 0.000000e+000 1.000000e+000 0.000000e+000
      outer loop
         vertex -5.000000e+001 0.000000e+000 -5.000000e+001
         vertex 0.000000e+000 0.000000e+000 -7.500000e+000
         vertex 5.000000e+001 0.000000e+000 -5.000000e+001
      endloop
   endfacet
   facet normal 0.000000e+000 1.000000e+000 0.000000e+000
      outer loop
         vertex 5.000000e+001 0.000000e+000 -5.000000e+001
         vertex 0.000000e+000 0.000000e+000 -7.500000e+000
         vertex 1.267506e+000 0.000000e+000 -7.392119e+000
      endloop
   endfacet
   facet normal 0.000000e+000 1.000000e+000 0.000000e+000
      outer loop
         vertex 5.000000e+001 0.000000e+000 -5.000000e+001
         vertex 1.267506e+000 0.000000e+000 -7.392119e+000
         vertex 2.498549e+000 0.000000e+000 -7.071581e+000
      endloop
   endfacet
   facet normal 0.000000e+000 1.000000e+000 0.000000e+000
      outer loop
         vertex 6.959168e+000 0.000000e+000 -2.796424e+000
         vertex 7.331664e+000 0.000000e+000 -1.580095e+000
         vertex 5.000000e+001 0.000000e+000 -5.000000e+001
      endloop
   endfacet
   facet normal 0.000000e+000 1.000000e+000 0.000000e+000
      outer loop
         vertex 5.000000e+001 0.000000e+000 -5.000000e+001
         vertex 7.331664e+000 0.000000e+000 -1.580095e+000
         vertex 7.493242e+000 0.000000e+000 -3.183090e-001
      endloop
   endfacet
   facet normal 0.000000e+000 1.000000e+000 0.000000e+000
      outer loop
         vertex 5.000000e+001 0.000000e+000 -5.000000e+001
         vertex 7.493242e+000 0.000000e+000 -3.183090e-001
         vertex 5.000000e+001 0.000000e+000 5.000000e+001
      endloop
   endfacet
   facet normal 0.000000e+000 1.000000e+000 0.000000e+000
      outer loop
         vertex 5.000000e+001 0.000000e+000 5.000000e+001
         vertex 7.493242e+000 0.000000e+000 -3.183090e-001
         vertex 7.439253e+000 0.000000e+000 9.526336e-001
      endloop
   endfacet
   facet normal 0.000000e+000 1.000000e+000 0.000000e+000
      outer loop
         vertex 5.000000e+001 0.000000e+000 5.000000e+001
         vertex 7.439253e+000 0.000000e+000 9.526336e-001
         vertex 7.171250e+000 0.000000e+000 2.196171e+000
      endloop
   endfacet
   facet normal 1.000000e+000 0.000000e+000 -1.387779e-016
      outer loop
         vertex 5.000000e+001 -5.000000e+000 5.000000e+001
         vertex 5.000000e+001 -5.000000e+000 -5.000000e+001
         vertex 5.000000e+001 0.000000e+000 5.000000e+001
      endloop
   endfacet
   facet normal 1.000000e+000 0.000000e+000 -1.387779e-016
      outer loop
         vertex 5.000000e+001 0.000000e+000 5.000000e+001
         vertex 5.000000e+001 -5.000000e+000 -5.000000e+001
         vertex 5.000000e+001 0.000000e+000 -5.000000e+001
      endloop
   endfacet
   facet normal 0.000000e+000 0.000000e+000 1.000000e+000
      outer loop
         vertex -5.000000e+001 -5.000000e+000 5.000000e+001
         vertex 5.000000e+001 -5.000000e+000 5.000000e+001
         vertex -5.000000e+001 0.000000e+000 5.000000e+001
      endloop
   endfacet
   facet normal 0.000000e+000 0.000000e+000 1.000000e+000
      outer loop
         vertex -5.000000e+001 0.000000e+000 5.000000e+001
         vertex 5.000000e+001 -5.000000e+000 5.000000e+001
         vertex 5.000000e+001 0.000000e+000 5.000000e+001
      endloop
   endfacet
   facet normal -1.000000e+000 0.000000e+000 1.387779e-016
      outer loop
         vertex -5.000000e+001 -5.000000e+000 -5.000000e+001
         vertex -5.000000e+001 -5.000000e+000 5.000000e+001
         vertex -5.000000e+001 0.000000e+000 -5.000000e+001
      endloop
   endfacet
   facet normal -1.000000e+000 0.000000e+000 1.387779e-016
      outer loop
         vertex -5.000000e+001 0.000000e+000 -5.000000e+001
         vertex -5.000000e+001 -5.000000e+000 5.000000e+001
         vertex -5.000000e+001 0.000000e+000 5.000000e+001
      endloop
   endfacet
   facet normal 0.000000e+000 0.000000e+000 -1.000000e+000
      outer loop
         vertex 5.000000e+001 -5.000000e+000 -5.000000e+001
         vertex -5.000000e+001 -5.000000e+000 -5.000000e+001
         vertex 5.000000e+001 0.000000e+000 -5.000000e+001
      endloop
   endfacet
   facet normal 0.000000e+000 0.000000e+000 -1.000000e+000
      outer loop
         vertex 5.000000e+001 0.000000e+000 -5.000000e+001
         vertex -5.000000e+001 -5.000000e+000 -5.000000e+001
         vertex -5.000000e+001 0.000000e+000 -5.000000e+001
      endloop
   endfacet
   facet normal 0.000000e+000 -1.000000e+000 0.000000e+000
      outer loop
         vertex -5.000000e+001 -5.000000e+000 5.000000e+001
         vertex -5.000000e+001 -5.000000e+000 -5.000000e+001
         vertex 5.000000e+001 -5.000000e+000 5.000000e+001
      endloop
   endfacet
   facet normal 0.000000e+000 -1.000000e+000 0.000000e+000
      outer loop
         vertex 5.000000e+001 -5.000000e+000 5.000000e+001
         vertex -5.000000e+001 -5.000000e+000 -5.000000e+001
         vertex 5.000000e+001 -5.000000e+000 -5.000000e+001
      endloop
   endfacet
   facet normal 0.000000e+000 1.000000e+000 0.000000e+000
      outer loop
         vertex 4.240296e-001 6.000000e+001 4.981987e+000
         vertex 6.360444e-001 6.000000e+001 7.472981e+000
         vertex 1.259890e+000 6.000000e+001 4.838665e+000
      endloop
   endfacet
   facet normal 0.000000e+000 1.000000e+000 0.000000e+000
      outer loop
         vertex 1.259890e+000 6.000000e+001 4.838665e+000
         vertex 6.360444e-001 6.000000e+001 7.472981e+000
         vertex 1.889835e+000 6.000000e+001 7.257997e+000
      endloop
   endfacet
   facet normal 0.000000e+000 1.000000e+000 0.000000e+000
      outer loop
         vertex 1.259890e+000 6.000000e+001 4.838665e+000
         vertex 1.889835e+000 6.000000e+001 7.257997e+000
         vertex 2.059506e+000 6.000000e+001 4.556142e+000
      endloop
   endfacet
   facet normal 0.000000e+000 1.000000e+000 0.000000e+000
      outer loop
         vertex 2.059506e+000 6.000000e+001 4.556142e+000
         vertex 1.889835e+000 6.000000e+001 7.257997e+000
         vertex 3.089259e+000 6.000000e+001 6.834214e+000
      endloop
   endfacet
   facet normal 0.000000e+000 1.000000e+000 0.000000e+000
      outer loop
         vertex 2.059506e+000 6.000000e+001 4.556142e+000
         vertex 3.089259e+000 6.000000e+001 6.834214e+000
         vertex 2.799874e+000 6.000000e+001 4.142549e+000
      endloop
   endfacet
   facet normal 0.000000e+000 1.000000e+000 0.000000e+000
      outer loop
         vertex 2.799874e+000 6.000000e+001 4.142549e+000
         vertex 3.089259e+000 6.000000e+001 6.834214e+000
         vertex 4.199811e+000 6.000000e+001 6.213822e+000
      endloop
   endfacet
   facet normal 0.000000e+000 1.000000e+000 0.000000e+000
      outer loop
         vertex 2.799874e+000 6.000000e+001 4.142549e+000
         vertex 4.199811e+000 6.000000e+001 6.213822e+000
         vertex 3.459694e+000 6.000000e+001 3.609781e+000
      endloop
   endfacet
   facet normal 0.000000e+000 1.000000e+000 0.000000e+000
      outer loop
         vertex 3.459694e+000 6.000000e+001 3.609781e+000
         vertex 4.199811e+000 6.000000e+001 6.213822e+000
         vertex 5.189542e+000 6.000000e+001 5.414671e+000
      endloop
   endfacet
   facet normal 0.000000e+000 1.000000e+000 0.000000e+000
      outer loop
         vertex 3.459694e+000 6.000000e+001 3.609781e+000
         vertex 5.189542e+000 6.000000e+001 5.414671e+000
         vertex 4.019986e+000 6.000000e+001 2.973166e+000
      endloop
   endfacet
   facet normal 0.000000e+000 1.000000e+000 0.000000e+000
      outer loop
         vertex 4.019986e+000 6.000000e+001 2.973166e+000
         vertex 5.189542e+000 6.000000e+001 5.414671e+000
         vertex 6.029978e+000 6.000000e+001 4.459749e+000
      endloop
   endfacet
   facet normal 0.000000e+000 1.000000e+000 0.000000e+000
      outer loop
         vertex 4.019986e+000 6.000000e+001 2.973166e+000
         vertex 6.029978e+000 6.000000e+001 4.459749e+000
         vertex 4.464629e+000 6.000000e+001 2.251019e+000
      endloop
   endfacet
   facet normal 0.000000e+000 1.000000e+000 0.000000e+000
      outer loop
         vertex 4.464629e+000 6.000000e+001 2.251019e+000
         vertex 6.029978e+000 6.000000e+001 4.459749e+000
         vertex 6.696944e+000 6.000000e+001 3.376528e+000
      endloop
   endfacet
   facet normal 0.000000e+000 1.000000e+000 0.000000e+000
      outer loop
         vertex 4.464629e+000 6.000000e+001 2.251019e+000
         vertex 6.696944e+000 6.000000e+001 3.376528e+000
         vertex 4.780834e+000 6.000000e+001 1.464114e+000
      endloop
   endfacet
   facet normal 0.000000e+000 1.000000e+000 0.000000e+000
      outer loop
         vertex 4.780834e+000 6.000000e+001 1.464114e+000
         vertex 6.696944e+000 6.000000e+001 3.376528e+000
         vertex 7.171250e+000 6.000000e+001 2.196171e+000
      endloop
   endfacet
   facet normal 0.000000e+000 1.000000e+000 0.000000e+000
      outer loop
         vertex 4.780834e+000 6.000000e+001 1.464114e+000
         vertex 7.171250e+000 6.000000e+001 2.196171e+000
         vertex 4.959502e+000 6.000000e+001 6.350891e-001
      endloop
   endfacet
   facet normal 0.000000e+000 1.000000e+000 0.000000e+000
      outer loop
         vertex 4.959502e+000 6.000000e+001 6.350891e-001
         vertex 7.171250e+000 6.000000e+001 2.196171e+000
         vertex 7.439253e+000 6.000000e+001 9.526336e-001
      endloop
   endfacet
   facet normal 0.000000e+000 1.000000e+000 0.000000e+000
      outer loop
         vertex 4.959502e+000 6.000000e+001 6.350891e-001
         vertex 7.439253e+000 6.000000e+001 9.526336e-001
         vertex 4.995495e+000 6.000000e+001 -2.122060e-001
      endloop
   endfacet
   facet normal 0.000000e+000 1.000000e+000 0.000000e+000
      outer loop
         vertex 4.995495e+000 6.000000e+001 -2.122060e-001
         vertex 7.439253e+000 6.000000e+001 9.526336e-001
         vertex 7.493242e+000 6.000000e+001 -3.183090e-001
      endloop
   endfacet
   facet normal 0.000000e+000 1.000000e+000 0.000000e+000
      outer loop
         vertex 4.995495e+000 6.000000e+001 -2.122060e-001
         vertex 7.493242e+000 6.000000e+001 -3.183090e-001
         vertex 4.887776e+000 6.000000e+001 -1.053396e+000
      endloop
   endfacet
   facet normal 0.000000e+000 1.000000e+000 0.000000e+000
      outer loop
         vertex 4.887776e+000 6.000000e+001 -1.053396e+000
         vertex 7.493242e+000 6.000000e+001 -3.183090e-001
         vertex 7.331664e+000 6.000000e+001 -1.580095e+000
      endloop
   endfacet
   facet normal 0.000000e+000 1.000000e+000 0.000000e+000
      outer loop
         vertex 4.887776e+000 6.000000e+001 -1.053396e+000
         vertex 7.331664e+000 6.000000e+001 -1.580095e+000
         vertex 4.639445e+000 6.000000e+001 -1.864282e+000
      endloop
   endfacet
   facet normal 0.000000e+000 1.000000e+000 0.000000e+000
      outer loop
         vertex 4.639445e+000 6.000000e+001 -1.864282e+000
         vertex 7.331664e+000 6.000000e+001 -1.580095e+000
         vertex 6.959168e+000 6.000000e+001 -2.796424e+000
      endloop
   endfacet
   facet normal 0.000000e+000 1.000000e+000 0.000000e+000
      outer loop
         vertex 4.639445e+000 6.000000e+001 -1.864282e+000
         vertex 6.959168e+000 6.000000e+001 -2.796424e+000
         vertex 4.257646e+000 6.000000e+001 -2.621536e+000
      endloop
   endfacet
   facet normal 0.000000e+000 1.000000e+000 0.000000e+000
      outer loop
         vertex 4.257646e+000 6.000000e+001 -2.621536e+000
         vertex 6.959168e+000 6.000000e+001 -2.796424e+000
         vertex 6.386469e+000 6.000000e+001 -3.932305e+000
      endloop
   endfacet
   facet normal 0.000000e+000 1.000000e+000 0.000000e+000
      outer loop
         vertex 4.257646e+000 6.000000e+001 -2.621536e+000
         vertex 6.386469e+000 6.000000e+001 -3.932305e+000
         vertex 3.753361e+000 6.000000e+001 -3.303374e+000
      endloop
   endfacet
   facet normal 0.000000e+000 1.000000e+000 0.000000e+000
      outer loop
         vertex 3.753361e+000 6.000000e+001 -3.303374e+000
         vertex 6.386469e+000 6.000000e+001 -3.932305e+000
         vertex 5.630043e+000 6.000000e+001 -4.955060e+000
      endloop
   endfacet
   facet normal 0.000000e+000 1.000000e+000 0.000000e+000
      outer loop
         vertex 3.753361e+000 6.000000e+001 -3.303374e+000
         vertex 5.630043e+000 6.000000e+001 -4.955060e+000
         vertex 3.141100e+000 6.000000e+001 -3.890179e+000
      endloop
   endfacet
   facet normal 0.000000e+000 1.000000e+000 0.000000e+000
      outer loop
         vertex 3.141100e+000 6.000000e+001 -3.890179e+000
         vertex 5.630043e+000 6.000000e+001 -4.955060e+000
         vertex 4.711650e+000 6.000000e+001 -5.835268e+000
      endloop
   endfacet
   facet normal 0.000000e+000 1.000000e+000 0.000000e+000
      outer loop
         vertex 3.141100e+000 6.000000e+001 -3.890179e+000
         vertex 4.711650e+000 6.000000e+001 -5.835268e+000
         vertex 2.438475e+000 6.000000e+001 -4.365071e+000
      endloop
   endfacet
   facet normal 0.000000e+000 1.000000e+000 0.000000e+000
      outer loop
         vertex 2.438475e+000 6.000000e+001 -4.365071e+000
         vertex 4.711650e+000 6.000000e+001 -5.835268e+000
         vertex 3.657712e+000 6.000000e+001 -6.547606e+000
      endloop
   endfacet
   facet normal 0.000000e+000 1.000000e+000 0.000000e+000
      outer loop
         vertex 2.438475e+000 6.000000e+001 -4.365071e+000
         vertex 3.657712e+000 6.000000e+001 -6.547606e+000
         vertex 1.665699e+000 6.000000e+001 -4.714387e+000
      endloop
   endfacet
   facet normal 0.000000e+000 1.000000e+000 0.000000e+000
      outer loop
         vertex 1.665699e+000 6.000000e+001 -4.714387e+000
         vertex 3.657712e+000 6.000000e+001 -6.547606e+000
         vertex 2.498549e+000 6.000000e+001 -7.071581e+000
      endloop
   endfacet
   facet normal 0.000000e+000 1.000000e+000 0.000000e+000
      outer loop
         vertex 1.665699e+000 6.000000e+001 -4.714387e+000
         vertex 2.498549e+000 6.000000e+001 -7.071581e+000
         vertex 8.450041e-001 6.000000e+001 -4.928080e+000
      endloop
   endfacet
   facet normal 0.000000e+000 1.000000e+000 0.000000e+000
      outer loop
         vertex 8.450041e-001 6.000000e+001 -4.928080e+000
         vertex 2.498549e+000 6.000000e+001 -7.071581e+000
         vertex 1.267506e+000 6.000000e+001 -7.392119e+000
      endloop
   endfacet
   facet normal 0.000000e+000 1.000000e+000 0.000000e+000
      outer loop
         vertex 8.450041e-001 6.000000e+001 -4.928080e+000
         vertex 1.267506e+000 6.000000e+001 -7.392119e+000
         vertex 0.000000e+000 6.000000e+001 -5.000000e+000
      endloop
   endfacet
   facet normal 0.000000e+000 1.000000e+000 0.000000e+000
      outer loop
         vertex 0.000000e+000 6.000000e+001 -5.000000e+000
         vertex 1.267506e+000 6.000000e+001 -7.392119e+000
         vertex 0.000000e+000 6.000000e+001 -7.500000e+000
      endloop
   endfacet
   facet normal 0.000000e+000 1.000000e+000 0.000000e+000
      outer loop
         vertex 0.000000e+000 6.000000e+001 -5.000000e+000
         vertex 0.000000e+000 6.000000e+001 -7.500000e+000
         vertex -8.450041e-001 6.000000e+001 -4.928080e+000
      endloop
   endfacet
   facet normal 0.000000e+000 1.000000e+000 0.000000e+000
      outer loop
         vertex -8.450041e-001 6.000000e+001 -4.928080e+000
         vertex 0.000000e+000 6.000000e+001 -7.500000e+000
         vertex -1.267506e+000 6.000000e+001 -7.392119e+000
      endloop
   endfacet
   facet normal 0.000000e+000 1.000000e+000 0.000000e+000
      outer loop
         vertex -8.450041e-001 6.000000e+001 -4.928080e+000
         vertex -1.267506e+000 6.000000e+001 -7.392119e+000
         vertex -1.665699e+000 6.000000e+001 -4.714387e+000
      endloop
   endfacet
   facet normal 0.000000e+000 1.000000e+000 0.000000e+000
      outer loop
         vertex -1.665699e+000 6.000000e+001 -4.714387e+000
         vertex -1.267506e+000 6.000000e+001 -7.392119e+000
         vertex -2.498549e+000 6.000000e+001 -7.071581e+000
      endloop
   endfacet
   facet normal 0.000000e+000 1.000000e+000 0.000000e+000
      outer loop
         vertex -1.665699e+000 6.000000e+001 -4.714387e+000
         vertex -2.498549e+000 6.000000e+001 -7.071581e+000
         vertex -2.438475e+000 6.000000e+001 -4.365071e+000
      endloop
   endfacet
   facet normal 0.000000e+000 1.000000e+000 0.000000e+000
      outer loop
         vertex -2.438475e+000 6.000000e+001 -4.365071e+000
         vertex -2.498549e+000 6.000000e+001 -7.071581e+000
         vertex -3.657712e+000 6.000000e+001 -6.547606e+000
      endloop
   endfacet
   facet normal 0.000000e+000 1.000000e+000 0.000000e+000
      outer loop
         vertex -2.438475e+000 6.000000e+001 -4.365071e+000
         vertex -3.657712e+000 6.000000e+001 -6.547606e+000
         vertex -3.141100e+000 6.000000e+001 -3.890179e+000
      endloop
   endfacet
   facet normal 0.000000e+000 1.000000e+000 0.000000e+000
      outer loop
         vertex -3.141100e+000 6.000000e+001 -3.890179e+000
         vertex -3.657712e+000 6.000000e+001 -6.547606e+000
         vertex -4.711650e+000 6.000000e+001 -5.835268e+000
      endloop
   endfacet
   facet normal 0.000000e+000 1.000000e+000 0.000000e+000
      outer loop
         vertex -3.141100e+000 6.000000e+001 -3.890179e+000
         vertex -4.711650e+000 6.000000e+001 -5.835268e+000
         vertex -3.753361e+000 6.000000e+001 -3.303374e+000
      endloop
   endfacet
   facet normal 0.000000e+000 1.000000e+000 0.000000e+000
      outer loop
         vertex -3.753361e+000 6.000000e+001 -3.303374e+000
         vertex -4.711650e+000 6.000000e+001 -5.835268e+000
         vertex -5.630043e+000 6.000000e+001 -4.955060e+000
      endloop
   endfacet
   facet normal 0.000000e+000 1.000000e+000 0.000000e+000
      outer loop
         vertex -3.753361e+000 6.000000e+001 -3.303374e+000
         vertex -5.630043e+000 6.000000e+001 -4.955060e+000
         vertex -4.257646e+000 6.000000e+001 -2.621536e+000
      endloop
   endfacet
   facet normal 0.000000e+000 1.000000e+000 0.000000e+000
      outer loop
         vertex -4.257646e+000 6.000000e+001 -2.621536e+000
         vertex -5.630043e+000 6.000000e+001 -4.955060e+000
         vertex -6.386469e+000 6.000000e+001 -3.932305e+000
      endloop
   endfacet
   facet normal 0.000000e+000 1.000000e+000 0.000000e+000
      outer loop
         vertex -4.257646e+000 6.000000e+001 -2.621536e+000
         vertex -6.386469e+000 6.000000e+001 -3.932305e+000
         vertex -4.639445e+000 6.000000e+001 -1.864282e+000
      endloop
   endfacet
   facet normal 0.000000e+000 1.000000e+000 0.000000e+000
      outer loop
         vertex -4.639445e+000 6.000000e+001 -1.864282e+000
         vertex -6.386469e+000 6.000000e+001 -3.932305e+000
         vertex -6.959168e+000 6.000000e+001 -2.796424e+000
      endloop
   endfacet
   facet normal 0.000000e+000 1.000000e+000 0.000000e+000
      outer loop
         vertex -4.639445e+000 6.000000e+001 -1.864282e+000
         vertex -6.959168e+000 6.000000e+001 -2.796424e+000
         vertex -4.887776e+000 6.000000e+001 -1.053396e+000
      endloop
   endfacet
   facet normal 0.000000e+000 1.000000e+000 0.000000e+000
      outer loop
         vertex -4.887776e+000 6.000000e+001 -1.053396e+000
         vertex -6.959168e+000 6.000000e+001 -2.796424e+000
         vertex -7.331664e+000 6.000000e+001 -1.580095e+000
      endloop
   endfacet
   facet normal 0.000000e+000 1.000000e+000 0.000000e+000
      outer loop
         vertex -4.887776e+000 6.000000e+001 -1.053396e+000
         vertex -7.331664e+000 6.000000e+001 -1.580095e+000
         vertex -4.995495e+000 6.000000e+001 -2.122060e-001
      endloop
   endfacet
   facet normal 0.000000e+000 1.000000e+000 0.000000e+000
      outer loop
         vertex -4.995495e+000 6.000000e+001 -2.122060e-001
         vertex -7.331664e+000 6.000000e+001 -1.580095e+000
         vertex -7.493242e+000 6.000000e+001 -3.183090e-001
      endloop
   endfacet
   facet normal 0.000000e+000 1.000000e+000 0.000000e+000
      outer loop
         vertex -4.995495e+000 6.000000e+001 -2.122060e-001
         vertex -7.493242e+000 6.000000e+001 -3.183090e-001
         vertex -4.959502e+000 6.000000e+001 6.350891e-001
      endloop
   endfacet
   facet normal 0.000000e+000 1.000000e+000 0.000000e+000
      outer loop
         vertex -4.959502e+000 6.000000e+001 6.350891e-001
         vertex -7.493242e+000 6.000000e+001 -3.183090e-001
         vertex -7.439253e+000 6.000000e+001 9.526336e-001
      endloop
   endfacet
   facet normal 0.000000e+000 1.000000e+000 0.000000e+000
      outer loop
         vertex -4.959502e+000 6.000000e+001 6.350891e-001
         vertex -7.439253e+000 6.000000e+001 9.526336e-001
         vertex -4.780834e+000 6.000000e+001 1.464114e+000
      endloop
   endfacet
   facet normal 0.000000e+000 1.000000e+000 0.000000e+000
      outer loop
         vertex -4.780834e+000 6.000000e+001 1.464114e+000
         vertex -7.439253e+000 6.000000e+001 9.526336e-001
         vertex -7.171250e+000 6.000000e+001 2.196171e+000
      endloop
   endfacet
   facet normal 0.000000e+000 1.000000e+000 0.000000e+000
      outer loop
         vertex -4.780834e+000 6.000000e+001 1.464114e+000
         vertex -7.171250e+000 6.000000e+001 2.196171e+000
         vertex -4.464629e+000 6.000000e+001 2.251019e+000
      endloop
   endfacet
   facet normal 0.000000e+000 1.000000e+000 0.000000e+000
      outer loop
         vertex -4.464629e+000 6.000000e+001 2.251019e+000
         vertex -7.171250e+000 6.000000e+001 2.196171e+000
         vertex -6.696944e+000 6.000000e+001 3.376528e+000
      endloop
   endfacet
   facet normal 0.000000e+000 1.000000e+000 0.000000e+000
      outer loop
         vertex -4.464629e+000 6.000000e+001 2.251019e+000
         vertex -6.696944e+000 6.000000e+001 3.376528e+000
         vertex -4.019986e+000 6.000000e+001 2.973166e+000
      endloop
   endfacet
   facet normal 0.000000e+000 1.000000e+000 0.000000e+000
      outer loop
         vertex -4.019986e+000 6.000000e+001 2.973166e+000
         vertex -6.696944e+000 6.000000e+001 3.376528e+000
         vertex -6.029978e+000 6.000000e+001 4.459749e+000
      endloop
   endfacet
   facet normal 0.000000e+000 1.000000e+000 0.000000e+000
      outer loop
         vertex -4.019986e+000 6.000000e+001 2.973166e+000
         vertex -6.029978e+000 6.000000e+001 4.459749e+000
         vertex -3.459694e+000 6.000000e+001 3.609781e+000
      endloop
   endfacet
   facet normal 0.000000e+000 1.000000e+000 0.000000e+000
      outer loop
         vertex -3.459694e+000 6.000000e+001 3.609781e+000
         vertex -6.029978e+000 6.000000e+001 4.459749e+000
         vertex -5.189542e+000 6.000000e+001 5.414671e+000
      endloop
   endfacet
   facet normal 0.000000e+000 1.000000e+000 0.000000e+000
      outer loop
         vertex -3.459694e+000 6.000000e+001 3.609781e+000
         vertex -5.189542e+000 6.000000e+001 5.414671e+000
         vertex -2.799874e+000 6.000000e+001 4.142549e+000
      endloop
   endfacet
   facet normal 0.000000e+000 1.000000e+000 0.000000e+000
      outer loop
         vertex -2.799874e+000 6.000000e+001 4.142549e+000
         vertex -5.189542e+000 6.000000e+001 5.414671e+000
         vertex -4.199811e+000 6.000000e+001 6.213822e+000
      endloop
   endfacet
   facet normal 0.000000e+000 1.000000e+000 0.000000e+000
      outer loop
         vertex -2.799874e+000 6.000000e+001 4.142549e+000
         vertex -4.199811e+000 6.000000e+001 6.213822e+000
         vertex -2.059506e+000 6.000000e+001 4.556142e+000
      endloop
   endfacet
   facet normal 0.000000e+000 1.000000e+000 0.000000e+000
      outer loop
         vertex -2.059506e+000 6.000000e+001 4.556142e+000
         vertex -4.199811e+000 6.000000e+001 6.213822e+000
         vertex -3.089259e+000 6.000000e+001 6.834214e+000
      endloop
   endfacet
   facet normal 0.000000e+000 1.000000e+000 0.000000e+000
      outer loop
         vertex -2.059506e+000 6.000000e+001 4.556142e+000
         vertex -3.089259e+000 6.000000e+001 6.834214e+000
         vertex -1.259890e+000 6.000000e+001 4.838665e+000
      endloop
   endfacet
   facet normal 0.000000e+000 1.000000e+000 0.000000e+000
      outer loop
         vertex -1.259890e+000 6.000000e+001 4.838665e+000
         vertex -3.089259e+000 6.000000e+001 6.834214e+000
         vertex -1.889835e+000 6.000000e+001 7.257997e+000
      endloop
   endfacet
   facet normal 0.000000e+000 1.000000e+000 0.000000e+000
      outer loop
         vertex -1.259890e+000 6.000000e+001 4.838665e+000
         vertex -1.889835e+000 6.000000e+001 7.257997e+000
         vertex -4.240296e-001 6.000000e+001 4.981987e+000
      endloop
   endfacet
   facet normal 0.000000e+000 1.000000e+000 0.000000e+000
      outer loop
         vertex -4.240296e-001 6.000000e+001 4.981987e+000
         vertex -1.889835e+000 6.000000e+001 7.257997e+000
         vertex -6.360444e-001 6.000000e+001 7.472981e+000
      endloop
   endfacet
   facet normal 0.000000e+000 1.000000e+000 0.000000e+000
      outer loop
         vertex -4.240296e-001 6.000000e+001 4.981987e+000
         vertex -6.360444e-001 6.000000e+001 7.472981e+000
         vertex 1.836970e-015 6.000000e+001 5.000000e+000
      endloop
   endfacet
   facet normal 0.000000e+000 1.000000e+000 0.000000e+000
      outer loop
         vertex 1.836970e-015 6.000000e+001 5.000000e+000
         vertex -6.360444e-001 6.000000e+001 7.472981e+000
         vertex 9.184852e-016 6.000000e+001 7.500000e+000
      endloop
   endfacet
   facet normal 0.000000e+000 1.000000e+000 0.000000e+000
      outer loop
         vertex 1.836970e-015 6.000000e+001 5.000000e+000
         vertex 9.184852e-016 6.000000e+001 7.500000e+000
         vertex 4.240296e-001 6.000000e+001 4.981987e+000
      endloop
   endfacet
   facet normal 0.000000e+000 1.000000e+000 0.000000e+000
      outer loop
         vertex 4.240296e-001 6.000000e+001 4.981987e+000
         vertex 9.184852e-016 6.000000e+001 7.500000e+000
         vertex 6.360444e-001 6.000000e+001 7.472981e+000
      endloop
   endfacet
   facet normal 2.829130e-002 0.000000e+000 9.995998e-001
      outer loop
         vertex 6.360444e-001 6.000000e+001 7.472981e+000
         vertex 2.755455e-015 6.000000e+001 7.500000e+000
         vertex 9.184852e-016 0.000000e+000 7.500000e+000
      endloop
   endfacet
   facet normal -2.829130e-002 0.000000e+000 9.995998e-001
      outer loop
         vertex 9.184852e-016 0.000000e+000 7.500000e+000
         vertex 2.755455e-015 6.000000e+001 7.500000e+000
         vertex -6.360444e-001 0.000000e+000 7.472981e+000
      endloop
   endfacet
   facet normal 5.658260e-002 0.000000e+000 9.983979e-001
      outer loop
         vertex 9.184852e-016 0.000000e+000 7.500000e+000
         vertex 6.360444e-001 0.000000e+000 7.472981e+000
         vertex 6.360444e-001 6.000000e+001 7.472981e+000
      endloop
   endfacet
   facet normal 1.409813e-001 0.000000e+000 9.900123e-001
      outer loop
         vertex 6.360444e-001 6.000000e+001 7.472981e+000
         vertex 6.360444e-001 0.000000e+000 7.472981e+000
         vertex 1.889835e+000 0.000000e+000 7.257997e+000
      endloop
   endfacet
   facet normal 1.968844e-001 0.000000e+000 9.804267e-001
      outer loop
         vertex 6.360444e-001 6.000000e+001 7.472981e+000
         vertex 1.889835e+000 0.000000e+000 7.257997e+000
         vertex 1.889835e+000 6.000000e+001 7.257997e+000
      endloop
   endfacet
   facet normal 3.062663e-001 0.000000e+000 9.519458e-001
      outer loop
         vertex 1.889835e+000 6.000000e+001 7.257997e+000
         vertex 1.889835e+000 0.000000e+000 7.257997e+000
         vertex 3.089259e+000 0.000000e+000 6.834214e+000
      endloop
   endfacet
   facet normal 3.597453e-001 0.000000e+000 9.330506e-001
      outer loop
         vertex 1.889835e+000 6.000000e+001 7.257997e+000
         vertex 3.089259e+000 0.000000e+000 6.834214e+000
         vertex 3.089259e+000 6.000000e+001 6.834214e+000
      endloop
   endfacet
   facet normal 4.627406e-001 0.000000e+000 8.864937e-001
      outer loop
         vertex 3.089259e+000 6.000000e+001 6.834214e+000
         vertex 3.089259e+000 0.000000e+000 6.834214e+000
         vertex 4.199811e+000 0.000000e+000 6.213822e+000
      endloop
   endfacet
   facet normal 5.122570e-001 0.000000e+000 8.588322e-001
      outer loop
         vertex 3.089259e+000 6.000000e+001 6.834214e+000
         vertex 4.199811e+000 0.000000e+000 6.213822e+000
         vertex 4.199811e+000 6.000000e+001 6.213822e+000
      endloop
   endfacet
   facet normal 6.059027e-001 0.000000e+000 7.955388e-001
      outer loop
         vertex 4.199811e+000 6.000000e+001 6.213822e+000
         vertex 4.199811e+000 0.000000e+000 6.213822e+000
         vertex 5.189542e+000 0.000000e+000 5.414671e+000
      endloop
   endfacet
   facet normal 6.500320e-001 0.000000e+000 7.599069e-001
      outer loop
         vertex 4.199811e+000 6.000000e+001 6.213822e+000
         vertex 5.189542e+000 0.000000e+000 5.414671e+000
         vertex 5.189542e+000 6.000000e+001 5.414671e+000
      endloop
   endfacet
   facet normal 7.316340e-001 0.000000e+000 6.816977e-001
      outer loop
         vertex 5.189542e+000 6.000000e+001 5.414671e+000
         vertex 5.189542e+000 0.000000e+000 5.414671e+000
         vertex 6.029978e+000 0.000000e+000 4.459749e+000
      endloop
   endfacet
   facet normal 7.691067e-001 0.000000e+000 6.391203e-001
      outer loop
         vertex 5.189542e+000 6.000000e+001 5.414671e+000
         vertex 6.029978e+000 0.000000e+000 4.459749e+000
         vertex 6.029978e+000 6.000000e+001 4.459749e+000
      endloop
   endfacet
   facet normal 8.363176e-001 0.000000e+000 5.482453e-001
      outer loop
         vertex 6.029978e+000 6.000000e+001 4.459749e+000
         vertex 6.029978e+000 0.000000e+000 4.459749e+000
         vertex 6.696944e+000 0.000000e+000 3.376528e+000
      endloop
   endfacet
   facet normal 8.660557e-001 0.000000e+000 4.999475e-001
      outer loop
         vertex 6.029978e+000 6.000000e+001 4.459749e+000
         vertex 6.696944e+000 0.000000e+000 3.376528e+000
         vertex 6.696944e+000 6.000000e+001 3.376528e+000
      endloop
   endfacet
   facet normal 9.169418e-001 0.000000e+000 3.990209e-001
      outer loop
         vertex 6.696944e+000 6.000000e+001 3.376528e+000
         vertex 6.696944e+000 0.000000e+000 3.376528e+000
         vertex 7.171250e+000 0.000000e+000 2.196171e+000
      endloop
   endfacet
   facet normal 9.380898e-001 0.000000e+000 3.463921e-001
      outer loop
         vertex 6.696944e+000 6.000000e+001 3.376528e+000
         vertex 7.171250e+000 0.000000e+000 2.196171e+000
         vertex 7.171250e+000 6.000000e+001 2.196171e+000
      endloop
   endfacet
   facet normal 9.711873e-001 0.000000e+000 2.383175e-001
      outer loop
         vertex 7.171250e+000 6.000000e+001 2.196171e+000
         vertex 7.171250e+000 0.000000e+000 2.196171e+000
         vertex 7.439253e+000 0.000000e+000 9.526336e-001
      endloop
   endfacet
   facet normal 9.831368e-001 0.000000e+000 1.828716e-001
      outer loop
         vertex 7.171250e+000 6.000000e+001 2.196171e+000
         vertex 7.439253e+000 0.000000e+000 9.526336e-001
         vertex 7.439253e+000 6.000000e+001 9.526336e-001
      endloop
   endfacet
   facet normal 9.974935e-001 0.000000e+000 7.075802e-002
      outer loop
         vertex 7.439253e+000 6.000000e+001 9.526336e-001
         vertex 7.439253e+000 0.000000e+000 9.526336e-001
         vertex 7.493242e+000 0.000000e+000 -3.183090e-001
      endloop
   endfacet
   facet normal 9.999007e-001 0.000000e+000 1.409025e-002
      outer loop
         vertex 7.439253e+000 6.000000e+001 9.526336e-001
         vertex 7.493242e+000 0.000000e+000 -3.183090e-001
         vertex 7.493242e+000 6.000000e+001 -3.183090e-001
      endloop
   endfacet
   facet normal 9.951036e-001 0.000000e+000 -9.883699e-002
      outer loop
         vertex 7.493242e+000 6.000000e+001 -3.183090e-001
         vertex 7.493242e+000 0.000000e+000 -3.183090e-001
         vertex 7.331664e+000 0.000000e+000 -1.580095e+000
      endloop
   endfacet
   facet normal 9.878993e-001 0.000000e+000 -1.550965e-001
      outer loop
         vertex 7.493242e+000 6.000000e+001 -3.183090e-001
         vertex 7.331664e+000 0.000000e+000 -1.580095e+000
         vertex 7.331664e+000 6.000000e+001 -1.580095e+000
      endloop
   endfacet
   facet normal 9.640865e-001 0.000000e+000 -2.655886e-001
      outer loop
         vertex 7.331664e+000 6.000000e+001 -1.580095e+000
         vertex 7.331664e+000 0.000000e+000 -1.580095e+000
         vertex 6.959168e+000 0.000000e+000 -2.796424e+000
      endloop
   endfacet
   facet normal 9.474779e-001 0.000000e+000 -3.198213e-001
      outer loop
         vertex 7.331664e+000 6.000000e+001 -1.580095e+000
         vertex 6.959168e+000 0.000000e+000 -2.796424e+000
         vertex 6.959168e+000 6.000000e+001 -2.796424e+000
      endloop
   endfacet
   facet normal 9.053342e-001 0.000000e+000 -4.246998e-001
      outer loop
         vertex 6.959168e+000 6.000000e+001 -2.796424e+000
         vertex 6.959168e+000 0.000000e+000 -2.796424e+000
         vertex 6.386469e+000 0.000000e+000 -3.932305e+000
      endloop
   endfacet
   facet normal 8.797992e-001 0.000000e+000 -4.753455e-001
      outer loop
         vertex 6.959168e+000 6.000000e+001 -2.796424e+000
         vertex 6.386469e+000 0.000000e+000 -3.932305e+000
         vertex 6.386469e+000 6.000000e+001 -3.932305e+000
      endloop
   endfacet
   facet normal 8.205372e-001 0.000000e+000 -5.715931e-001
      outer loop
         vertex 6.386469e+000 6.000000e+001 -3.932305e+000
         vertex 6.386469e+000 0.000000e+000 -3.932305e+000
         vertex 5.630043e+000 0.000000e+000 -4.955060e+000
      endloop
   endfacet
   facet normal 7.868103e-001 0.000000e+000 -6.171949e-001
      outer loop
         vertex 6.386469e+000 6.000000e+001 -3.932305e+000
         vertex 5.630043e+000 0.000000e+000 -4.955060e+000
         vertex 5.630043e+000 6.000000e+001 -4.955060e+000
      endloop
   endfacet
   facet normal 7.121348e-001 0.000000e+000 -7.020428e-001
      outer loop
         vertex 5.630043e+000 6.000000e+001 -4.955060e+000
         vertex 5.630043e+000 0.000000e+000 -4.955060e+000
         vertex 4.711650e+000 0.000000e+000 -5.835268e+000
      endloop
   endfacet
   facet normal 6.711863e-001 0.000000e+000 -7.412888e-001
      outer loop
         vertex 5.630043e+000 6.000000e+001 -4.955060e+000
         vertex 4.711650e+000 0.000000e+000 -5.835268e+000
         vertex 4.711650e+000 6.000000e+001 -5.835268e+000
      endloop
   endfacet
   facet normal 5.832456e-001 0.000000e+000 -8.122959e-001
      outer loop
         vertex 4.711650e+000 6.000000e+001 -5.835268e+000
         vertex 4.711650e+000 0.000000e+000 -5.835268e+000
         vertex 3.657712e+000 0.000000e+000 -6.547606e+000
      endloop
   endfacet
   facet normal 5.362535e-001 0.000000e+000 -8.440570e-001
      outer loop
         vertex 4.711650e+000 6.000000e+001 -5.835268e+000
         vertex 3.657712e+000 0.000000e+000 -6.547606e+000
         vertex 3.657712e+000 6.000000e+001 -6.547606e+000
      endloop
   endfacet
   facet normal 4.375775e-001 0.000000e+000 -8.991807e-001
      outer loop
         vertex 3.657712e+000 6.000000e+001 -6.547606e+000
         vertex 3.657712e+000 0.000000e+000 -6.547606e+000
         vertex 2.498549e+000 0.000000e+000 -7.071581e+000
      endloop
   endfacet
   facet normal 3.858936e-001 0.000000e+000 -9.225433e-001
      outer loop
         vertex 3.657712e+000 6.000000e+001 -6.547606e+000
         vertex 2.498549e+000 0.000000e+000 -7.071581e+000
         vertex 2.498549e+000 6.000000e+001 -7.071581e+000
      endloop
   endfacet
   facet normal 2.793211e-001 0.000000e+000 -9.601977e-001
      outer loop
         vertex 2.498549e+000 6.000000e+001 -7.071581e+000
         vertex 2.498549e+000 0.000000e+000 -7.071581e+000
         vertex 1.267506e+000 0.000000e+000 -7.392119e+000
      endloop
   endfacet
   facet normal 2.244324e-001 0.000000e+000 -9.744897e-001
      outer loop
         vertex 2.498549e+000 6.000000e+001 -7.071581e+000
         vertex 1.267506e+000 0.000000e+000 -7.392119e+000
         vertex 1.267506e+000 6.000000e+001 -7.392119e+000
      endloop
   endfacet
   facet normal 1.130291e-001 0.000000e+000 -9.935917e-001
      outer loop
         vertex 1.267506e+000 6.000000e+001 -7.392119e+000
         vertex 1.267506e+000 0.000000e+000 -7.392119e+000
         vertex 0.000000e+000 0.000000e+000 -7.500000e+000
      endloop
   endfacet
   facet normal 5.651454e-002 0.000000e+000 -9.984018e-001
      outer loop
         vertex 1.267506e+000 6.000000e+001 -7.392119e+000
         vertex 0.000000e+000 0.000000e+000 -7.500000e+000
         vertex 0.000000e+000 6.000000e+001 -7.500000e+000
      endloop
   endfacet
   facet normal -5.651454e-002 0.000000e+000 -9.984018e-001
      outer loop
         vertex 0.000000e+000 6.000000e+001 -7.500000e+000
         vertex 0.000000e+000 0.000000e+000 -7.500000e+000
         vertex -1.267506e+000 0.000000e+000 -7.392119e+000
      endloop
   endfacet
   facet normal -1.130291e-001 0.000000e+000 -9.935917e-001
      outer loop
         vertex 0.000000e+000 6.000000e+001 -7.500000e+000
         vertex -1.267506e+000 0.000000e+000 -7.392119e+000
         vertex -1.267506e+000 6.000000e+001 -7.392119e+000
      endloop
   endfacet
   facet normal -2.244324e-001 0.000000e+000 -9.744897e-001
      outer loop
         vertex -1.267506e+000 6.000000e+001 -7.392119e+000
         vertex -1.267506e+000 0.000000e+000 -7.392119e+000
         vertex -2.498549e+000 0.000000e+000 -7.071581e+000
      endloop
   endfacet
   facet normal -2.793211e-001 0.000000e+000 -9.601977e-001
      outer loop
         vertex -1.267506e+000 6.000000e+001 -7.392119e+000
         vertex -2.498549e+000 0.000000e+000 -7.071581e+000
         vertex -2.498549e+000 6.000000e+001 -7.071581e+000
      endloop
   endfacet
   facet normal -3.858936e-001 0.000000e+000 -9.225433e-001
      outer loop
         vertex -2.498549e+000 6.000000e+001 -7.071581e+000
         vertex -2.498549e+000 0.000000e+000 -7.071581e+000
         vertex -3.657712e+000 0.000000e+000 -6.547606e+000
      endloop
   endfacet
   facet normal -4.375775e-001 0.000000e+000 -8.991807e-001
      outer loop
         vertex -2.498549e+000 6.000000e+001 -7.071581e+000
         vertex -3.657712e+000 0.000000e+000 -6.547606e+000
         vertex -3.657712e+000 6.000000e+001 -6.547606e+000
      endloop
   endfacet
   facet normal -5.362535e-001 0.000000e+000 -8.440570e-001
      outer loop
         vertex -3.657712e+000 6.000000e+001 -6.547606e+000
         vertex -3.657712e+000 0.000000e+000 -6.547606e+000
         vertex -4.711650e+000 0.000000e+000 -5.835268e+000
      endloop
   endfacet
   facet normal -5.832456e-001 0.000000e+000 -8.122959e-001
      outer loop
         vertex -3.657712e+000 6.000000e+001 -6.547606e+000
         vertex -4.711650e+000 0.000000e+000 -5.835268e+000
         vertex -4.711650e+000 6.000000e+001 -5.835268e+000
      endloop
   endfacet
   facet normal -6.711863e-001 0.000000e+000 -7.412888e-001
      outer loop
         vertex -4.711650e+000 6.000000e+001 -5.835268e+000
         vertex -4.711650e+000 0.000000e+000 -5.835268e+000
         vertex -5.630043e+000 0.000000e+000 -4.955060e+000
      endloop
   endfacet
   facet normal -7.121348e-001 0.000000e+000 -7.020428e-001
      outer loop
         vertex -4.711650e+000 6.000000e+001 -5.835268e+000
         vertex -5.630043e+000 0.000000e+000 -4.955060e+000
         vertex -5.630043e+000 6.000000e+001 -4.955060e+000
      endloop
   endfacet
   facet normal -7.868103e-001 0.000000e+000 -6.171949e-001
      outer loop
         vertex -5.630043e+000 6.000000e+001 -4.955060e+000
         vertex -5.630043e+000 0.000000e+000 -4.955060e+000
         vertex -6.386469e+000 0.000000e+000 -3.932305e+000
      endloop
   endfacet
   facet normal -8.205372e-001 0.000000e+000 -5.715931e-001
      outer loop
         vertex -5.630043e+000 6.000000e+001 -4.955060e+000
         vertex -6.386469e+000 0.000000e+000 -3.932305e+000
         vertex -6.386469e+000 6.000000e+001 -3.932305e+000
      endloop
   endfacet
   facet normal -8.797992e-001 0.000000e+000 -4.753455e-001
      outer loop
         vertex -6.386469e+000 6.000000e+001 -3.932305e+000
         vertex -6.386469e+000 0.000000e+000 -3.932305e+000
         vertex -6.959168e+000 0.000000e+000 -2.796424e+000
      endloop
   endfacet
   facet normal -9.053342e-001 0.000000e+000 -4.246998e-001
      outer loop
         vertex -6.386469e+000 6.000000e+001 -3.932305e+000
         vertex -6.959168e+000 0.000000e+000 -2.796424e+000
         vertex -6.959168e+000 6.000000e+001 -2.796424e+000
      endloop
   endfacet
   facet normal -9.474779e-001 0.000000e+000 -3.198213e-001
      outer loop
         vertex -6.959168e+000 6.000000e+001 -2.796424e+000
         vertex -6.959168e+000 0.000000e+000 -2.796424e+000
         vertex -7.331664e+000 0.000000e+000 -1.580095e+000
      endloop
   endfacet
   facet normal -9.640865e-001 0.000000e+000 -2.655886e-001
      outer loop
         vertex -6.959168e+000 6.000000e+001 -2.796424e+000
         vertex -7.331664e+000 0.000000e+000 -1.580095e+000
         vertex -7.331664e+000 6.000000e+001 -1.580095e+000
      endloop
   endfacet
   facet normal -9.878993e-001 0.000000e+000 -1.550965e-001
      outer loop
         vertex -7.331664e+000 6.000000e+001 -1.580095e+000
         vertex -7.331664e+000 0.000000e+000 -1.580095e+000
         vertex -7.493242e+000 0.000000e+000 -3.183090e-001
      endloop
   endfacet
   facet normal -9.951036e-001 0.000000e+000 -9.883699e-002
      outer loop
         vertex -7.331664e+000 6.000000e+001 -1.580095e+000
         vertex -7.493242e+000 0.000000e+000 -3.183090e-001
         vertex -7.493242e+000 6.000000e+001 -3.183090e-001
      endloop
   endfacet
   facet normal -9.999007e-001 0.000000e+000 1.409025e-002
      outer loop
         vertex -7.493242e+000 6.000000e+001 -3.183090e-001
         vertex -7.493242e+000 0.000000e+000 -3.183090e-001
         vertex -7.439253e+000 0.000000e+000 9.526336e-001
      endloop
   endfacet
   facet normal -9.974935e-001 0.000000e+000 7.075802e-002
      outer loop
         vertex -7.493242e+000 6.000000e+001 -3.183090e-001
         vertex -7.439253e+000 0.000000e+000 9.526336e-001
         vertex -7.439253e+000 6.000000e+001 9.526336e-001
      endloop
   endfacet
   facet normal -9.831368e-001 0.000000e+000 1.828716e-001
      outer loop
         vertex -7.439253e+000 6.000000e+001 9.526336e-001
         vertex -7.439253e+000 0.000000e+000 9.526336e-001
         vertex -7.171250e+000 0.000000e+000 2.196171e+000
      endloop
   endfacet
   facet normal -9.711873e-001 0.000000e+000 2.383175e-001
      outer loop
         vertex -7.439253e+000 6.000000e+001 9.526336e-001
         vertex -7.171250e+000 0.000000e+000 2.196171e+000
         vertex -7.171250e+000 6.000000e+001 2.196171e+000
      endloop
   endfacet
   facet normal -9.380898e-001 0.000000e+000 3.463921e-001
      outer loop
         vertex -7.171250e+000 6.000000e+001 2.196171e+000
         vertex -7.171250e+000 0.000000e+000 2.196171e+000
         vertex -6.696944e+000 0.000000e+000 3.376528e+000
      endloop
   endfacet
   facet normal -9.169418e-001 0.000000e+000 3.990209e-001
      outer loop
         vertex -7.171250e+000 6.000000e+001 2.196171e+000
         vertex -6.696944e+000 0.000000e+000 3.376528e+000
         vertex -6.696944e+000 6.000000e+001 3.376528e+000
      endloop
   endfacet
   facet normal -8.660557e-001 0.000000e+000 4.999475e-001
      outer loop
         vertex -6.696944e+000 6.000000e+001 3.376528e+000
         vertex -6.696944e+000 0.000000e+000 3.376528e+000
         vertex -6.029978e+000 0.000000e+000 4.459749e+000
      endloop
   endfacet
   facet normal -8.363176e-001 0.000000e+000 5.482453e-001
      outer loop
         vertex -6.696944e+000 6.000000e+001 3.376528e+000
         vertex -6.029978e+000 0.000000e+000 4.459749e+000
         vertex -6.029978e+000 6.000000e+001 4.459749e+000
      endloop
   endfacet
   facet normal -7.691067e-001 0.000000e+000 6.391203e-001
      outer loop
         vertex -6.029978e+000 6.000000e+001 4.459749e+000
         vertex -6.029978e+000 0.000000e+000 4.459749e+000
         vertex -5.189542e+000 0.000000e+000 5.414671e+000
      endloop
   endfacet
   facet normal -7.316340e-001 0.000000e+000 6.816977e-001
      outer loop
         vertex -6.029978e+000 6.000000e+001 4.459749e+000
         vertex -5.189542e+000 0.000000e+000 5.414671e+000
         vertex -5.189542e+000 6.000000e+001 5.414671e+000
      endloop
   endfacet
   facet normal -6.500320e-001 0.000000e+000 7.599069e-001
      outer loop
         vertex -5.189542e+000 6.000000e+001 5.414671e+000
         vertex -5.189542e+000 0.000000e+000 5.414671e+000
         vertex -4.199811e+000 0.000000e+000 6.213822e+000
      endloop
   endfacet
   facet normal -6.059027e-001 0.000000e+000 7.955388e-001
      outer loop
         vertex -5.189542e+000 6.000000e+001 5.414671e+000
         vertex -4.199811e+000 0.000000e+000 6.213822e+000
         vertex -4.199811e+000 6.000000e+001 6.213822e+000
      endloop
   endfacet
   facet normal -5.122570e-001 0.000000e+000 8.588322e-001
      outer loop
         vertex -4.199811e+000 6.000000e+001 6.213822e+000
         vertex -4.199811e+000 0.000000e+000 6.213822e+000
         vertex -3.089259e+000 0.000000e+000 6.834214e+000
      endloop
   endfacet
   facet normal -4.627406e-001 0.000000e+000 8.864937e-001
      outer loop
         vertex -4.199811e+000 6.000000e+001 6.213822e+000
         vertex -3.089259e+000 0.000000e+000 6.834214e+000
         vertex -3.089259e+000 6.000000e+001 6.834214e+000
      endloop
   endfacet
   facet normal -3.597453e-001 0.000000e+000 9.330506e-001
      outer loop
         vertex -3.089259e+000 6.000000e+001 6.834214e+000
         vertex -3.089259e+000 0.000000e+000 6.834214e+000
         vertex -1.889835e+000 0.000000e+000 7.257997e+000
      endloop
   endfacet
   facet normal -3.062663e-001 0.000000e+000 9.519458e-001
      outer loop
         vertex -3.089259e+000 6.000000e+001 6.834214e+000
         vertex -1.889835e+000 0.000000e+000 7.257997e+000
         vertex -1.889835e+000 6.000000e+001 7.257997e+000
      endloop
   endfacet
   facet normal -1.968844e-001 0.000000e+000 9.804267e-001
      outer loop
         vertex -1.889835e+000 6.000000e+001 7.257997e+000
         vertex -1.889835e+000 0.000000e+000 7.257997e+000
         vertex -6.360444e-001 0.000000e+000 7.472981e+000
      endloop
   endfacet
   facet normal -1.409813e-001 0.000000e+000 9.900123e-001
      outer loop
         vertex -1.889835e+000 6.000000e+001 7.257997e+000
         vertex -6.360444e-001 0.000000e+000 7.472981e+000
         vertex -6.360444e-001 6.000000e+001 7.472981e+000
      endloop
   endfacet
   facet normal -5.658260e-002 0.000000e+000 9.983979e-001
      outer loop
         vertex -6.360444e-001 6.000000e+001 7.472981e+000
         vertex -6.360444e-001 0.000000e+000 7.472981e+000
         vertex 2.755455e-015 6.000000e+001 7.500000e+000
      endloop
   endfacet
   facet normal 2.829130e-002 0.000000e+000 -9.995998e-001
      outer loop
         vertex -4.240296e-001 6.000000e+001 4.981987e+000
         vertex 6.123234e-016 6.000000e+001 5.000000e+000
         vertex 1.836970e-015 0.000000e+000 5.000000e+000
      endloop
   endfacet
   facet normal -2.829130e-002 0.000000e+000 -9.995998e-001
      outer loop
         vertex 1.836970e-015 0.000000e+000 5.000000e+000
         vertex 6.123234e-016 6.000000e+001 5.000000e+000
         vertex 4.240296e-001 0.000000e+000 4.981987e+000
      endloop
   endfacet
   facet normal 5.658260e-002 0.000000e+000 -9.983979e-001
      outer loop
         vertex 1.836970e-015 0.000000e+000 5.000000e+000
         vertex -4.240296e-001 0.000000e+000 4.981987e+000
         vertex -4.240296e-001 6.000000e+001 4.981987e+000
      endloop
   endfacet
   facet normal 1.409813e-001 0.000000e+000 -9.900123e-001
      outer loop
         vertex -4.240296e-001 6.000000e+001 4.981987e+000
         vertex -4.240296e-001 0.000000e+000 4.981987e+000
         vertex -1.259890e+000 0.000000e+000 4.838665e+000
      endloop
   endfacet
   facet normal 1.968844e-001 0.000000e+000 -9.804267e-001
      outer loop
         vertex -4.240296e-001 6.000000e+001 4.981987e+000
         vertex -1.259890e+000 0.000000e+000 4.838665e+000
         vertex -1.259890e+000 6.000000e+001 4.838665e+000
      endloop
   endfacet
   facet normal 3.062663e-001 0.000000e+000 -9.519458e-001
      outer loop
         vertex -1.259890e+000 6.000000e+001 4.838665e+000
         vertex -1.259890e+000 0.000000e+000 4.838665e+000
         vertex -2.059506e+000 0.000000e+000 4.556142e+000
      endloop
   endfacet
   facet normal 3.597453e-001 0.000000e+000 -9.330506e-001
      outer loop
         vertex -1.259890e+000 6.000000e+001 4.838665e+000
         vertex -2.059506e+000 0.000000e+000 4.556142e+000
         vertex -2.059506e+000 6.000000e+001 4.556142e+000
      endloop
   endfacet
   facet normal 4.627406e-001 0.000000e+000 -8.864937e-001
      outer loop
         vertex -2.059506e+000 6.000000e+001 4.556142e+000
         vertex -2.059506e+000 0.000000e+000 4.556142e+000
         vertex -2.799874e+000 0.000000e+000 4.142549e+000
      endloop
   endfacet
   facet normal 5.122570e-001 0.000000e+000 -8.588322e-001
      outer loop
         vertex -2.059506e+000 6.000000e+001 4.556142e+000
         vertex -2.799874e+000 0.000000e+000 4.142549e+000
         vertex -2.799874e+000 6.000000e+001 4.142549e+000
      endloop
   endfacet
   facet normal 6.059027e-001 0.000000e+000 -7.955388e-001
      outer loop
         vertex -2.799874e+000 6.000000e+001 4.142549e+000
         vertex -2.799874e+000 0.000000e+000 4.142549e+000
         vertex -3.459694e+000 0.000000e+000 3.609781e+000
      endloop
   endfacet
   facet normal 6.500320e-001 0.000000e+000 -7.599069e-001
      outer loop
         vertex -2.799874e+000 6.000000e+001 4.142549e+000
         vertex -3.459694e+000 0.000000e+000 3.609781e+000
         vertex -3.459694e+000 6.000000e+001 3.609781e+000
      endloop
   endfacet
   facet normal 7.316340e-001 0.000000e+000 -6.816977e-001
      outer loop
         vertex -3.459694e+000 6.000000e+001 3.609781e+000
         vertex -3.459694e+000 0.000000e+000 3.609781e+000
         vertex -4.019986e+000 0.000000e+000 2.973166e+000
      endloop
   endfacet
   facet normal 7.691067e-001 0.000000e+000 -6.391203e-001
      outer loop
         vertex -3.459694e+000 6.000000e+001 3.609781e+000
         vertex -4.019986e+000 0.000000e+000 2.973166e+000
         vertex -4.019986e+000 6.000000e+001 2.973166e+000
      endloop
   endfacet
   facet normal 8.363176e-001 0.000000e+000 -5.482453e-001
      outer loop
         vertex -4.019986e+000 6.000000e+001 2.973166e+000
         vertex -4.019986e+000 0.000000e+000 2.973166e+000
         vertex -4.464629e+000 0.000000e+000 2.251019e+000
      endloop
   endfacet
   facet normal 8.660557e-001 0.000000e+000 -4.999475e-001
      outer loop
         vertex -4.019986e+000 6.000000e+001 2.973166e+000
         vertex -4.464629e+000 0.000000e+000 2.251019e+000
         vertex -4.464629e+000 6.000000e+001 2.251019e+000
      endloop
   endfacet
   facet normal 9.169418e-001 0.000000e+000 -3.990209e-001
      outer loop
         vertex -4.464629e+000 6.000000e+001 2.251019e+000
         vertex -4.464629e+000 0.000000e+000 2.251019e+000
         vertex -4.780834e+000 0.000000e+000 1.464114e+000
      endloop
   endfacet
   facet normal 9.380898e-001 0.000000e+000 -3.463921e-001
      outer loop
         vertex -4.464629e+000 6.000000e+001 2.251019e+000
         vertex -4.780834e+000 0.000000e+000 1.464114e+000
         vertex -4.780834e+000 6.000000e+001 1.464114e+000
      endloop
   endfacet
   facet normal 9.711873e-001 0.000000e+000 -2.383175e-001
      outer loop
         vertex -4.780834e+000 6.000000e+001 1.464114e+000
         vertex -4.780834e+000 0.000000e+000 1.464114e+000
         vertex -4.959502e+000 0.000000e+000 6.350891e-001
      endloop
   endfacet
   facet normal 9.831368e-001 0.000000e+000 -1.828716e-001
      outer loop
         vertex -4.780834e+000 6.000000e+001 1.464114e+000
         vertex -4.959502e+000 0.000000e+000 6.350891e-001
         vertex -4.959502e+000 6.000000e+001 6.350891e-001
      endloop
   endfacet
   facet normal 9.974935e-001 0.000000e+000 -7.075802e-002
      outer loop
         vertex -4.959502e+000 6.000000e+001 6.350891e-001
         vertex -4.959502e+000 0.000000e+000 6.350891e-001
         vertex -4.995495e+000 0.000000e+000 -2.122060e-001
      endloop
   endfacet
   facet normal 9.999007e-001 0.000000e+000 -1.409025e-002
      outer loop
         vertex -4.959502e+000 6.000000e+001 6.350891e-001
         vertex -4.995495e+000 0.000000e+000 -2.122060e-001
         vertex -4.995495e+000 6.000000e+001 -2.122060e-001
      endloop
   endfacet
   facet normal 9.951036e-001 0.000000e+000 9.883699e-002
      outer loop
         vertex -4.995495e+000 6.000000e+001 -2.122060e-001
         vertex -4.995495e+000 0.000000e+000 -2.122060e-001
         vertex -4.887776e+000 0.000000e+000 -1.053396e+000
      endloop
   endfacet
   facet normal 9.878993e-001 0.000000e+000 1.550965e-001
      outer loop
         vertex -4.995495e+000 6.000000e+001 -2.122060e-001
         vertex -4.887776e+000 0.000000e+000 -1.053396e+000
         vertex -4.887776e+000 6.000000e+001 -1.053396e+000
      endloop
   endfacet
   facet normal 9.640865e-001 0.000000e+000 2.655886e-001
      outer loop
         vertex -4.887776e+000 6.000000e+001 -1.053396e+000
         vertex -4.887776e+000 0.000000e+000 -1.053396e+000
         vertex -4.639445e+000 0.000000e+000 -1.864282e+000
      endloop
   endfacet
   facet normal 9.474779e-001 0.000000e+000 3.198213e-001
      outer loop
         vertex -4.887776e+000 6.000000e+001 -1.053396e+000
         vertex -4.639445e+000 0.000000e+000 -1.864282e+000
         vertex -4.639445e+000 6.000000e+001 -1.864282e+000
      endloop
   endfacet
   facet normal 9.053342e-001 0.000000e+000 4.246998e-001
      outer loop
         vertex -4.639445e+000 6.000000e+001 -1.864282e+000
         vertex -4.639445e+000 0.000000e+000 -1.864282e+000
         vertex -4.257646e+000 0.000000e+000 -2.621536e+000
      endloop
   endfacet
   facet normal 8.797992e-001 0.000000e+000 4.753455e-001
      outer loop
         vertex -4.639445e+000 6.000000e+001 -1.864282e+000
         vertex -4.257646e+000 0.000000e+000 -2.621536e+000
         vertex -4.257646e+000 6.000000e+001 -2.621536e+000
      endloop
   endfacet
   facet normal 8.205372e-001 0.000000e+000 5.715931e-001
      outer loop
         vertex -4.257646e+000 6.000000e+001 -2.621536e+000
         vertex -4.257646e+000 0.000000e+000 -2.621536e+000
         vertex -3.753361e+000 0.000000e+000 -3.303374e+000
      endloop
   endfacet
   facet normal 7.868103e-001 0.000000e+000 6.171949e-001
      outer loop
         vertex -4.257646e+000 6.000000e+001 -2.621536e+000
         vertex -3.753361e+000 0.000000e+000 -3.303374e+000
         vertex -3.753361e+000 6.000000e+001 -3.303374e+000
      endloop
   endfacet
   facet normal 7.121348e-001 0.000000e+000 7.020428e-001
      outer loop
         vertex -3.753361e+000 6.000000e+001 -3.303374e+000
         vertex -3.753361e+000 0.000000e+000 -3.303374e+000
         vertex -3.141100e+000 0.000000e+000 -3.890179e+000
      endloop
   endfacet
   facet normal 6.711863e-001 0.000000e+000 7.412888e-001
      outer loop
         vertex -3.753361e+000 6.000000e+001 -3.303374e+000
         vertex -3.141100e+000 0.000000e+000 -3.890179e+000
         vertex -3.141100e+000 6.000000e+001 -3.890179e+000
      endloop
   endfacet
   facet normal 5.832456e-001 0.000000e+000 8.122959e-001
      outer loop
         vertex -3.141100e+000 6.000000e+001 -3.890179e+000
         vertex -3.141100e+000 0.000000e+000 -3.890179e+000
         vertex -2.438475e+000 0.000000e+000 -4.365071e+000
      endloop
   endfacet
   facet normal 5.362535e-001 0.000000e+000 8.440570e-001
      outer loop
         vertex -3.141100e+000 6.000000e+001 -3.890179e+000
         vertex -2.438475e+000 0.000000e+000 -4.365071e+000
         vertex -2.438475e+000 6.000000e+001 -4.365071e+000
      endloop
   endfacet
   facet normal 4.375775e-001 0.000000e+000 8.991807e-001
      outer loop
         vertex -2.438475e+000 6.000000e+001 -4.365071e+000
         vertex -2.438475e+000 0.000000e+000 -4.365071e+000
         vertex -1.665699e+000 0.000000e+000 -4.714387e+000
      endloop
   endfacet
   facet normal 3.858936e-001 0.000000e+000 9.225433e-001
      outer loop
         vertex -2.438475e+000 6.000000e+001 -4.365071e+000
         vertex -1.665699e+000 0.000000e+000 -4.714387e+000
         vertex -1.665699e+000 6.000000e+001 -4.714387e+000
      endloop
   endfacet
   facet normal 2.793211e-001 0.000000e+000 9.601977e-001
      outer loop
         vertex -1.665699e+000 6.000000e+001 -4.714387e+000
         vertex -1.665699e+000 0.000000e+000 -4.714387e+000
         vertex -8.450041e-001 0.000000e+000 -4.928080e+000
      endloop
   endfacet
   facet normal 2.244324e-001 0.000000e+000 9.744897e-001
      outer loop
         vertex -1.665699e+000 6.000000e+001 -4.714387e+000
         vertex -8.450041e-001 0.000000e+000 -4.928080e+000
         vertex -8.450041e-001 6.000000e+001 -4.928080e+000
      endloop
   endfacet
   facet normal 1.130291e-001 0.000000e+000 9.935917e-001
      outer loop
         vertex -8.450041e-001 6.000000e+001 -4.928080e+000
         vertex -8.450041e-001 0.000000e+000 -4.928080e+000
         vertex -1.224647e-015 0.000000e+000 -5.000000e+000
      endloop
   endfacet
   facet normal 5.651454e-002 0.000000e+000 9.984018e-001
      outer loop
         vertex -8.450041e-001 6.000000e+001 -4.928080e+000
         vertex -1.224647e-015 0.000000e+000 -5.000000e+000
         vertex -1.224647e-015 6.000000e+001 -5.000000e+000
      endloop
   endfacet
   facet normal -5.651454e-002 0.000000e+000 9.984018e-001
      outer loop
         vertex -1.224647e-015 6.000000e+001 -5.000000e+000
         vertex -1.224647e-015 0.000000e+000 -5.000000e+000
         vertex 8.450041e-001 0.000000e+000 -4.928080e+000
      endloop
   endfacet
   facet normal -1.130291e-001 0.000000e+000 9.935917e-001
      outer loop
         vertex -1.224647e-015 6.000000e+001 -5.000000e+000
         vertex 8.450041e-001 0.000000e+000 -4.928080e+000
         vertex 8.450041e-001 6.000000e+001 -4.928080e+000
      endloop
   endfacet
   facet normal -2.244324e-001 0.000000e+000 9.744897e-001
      outer loop
         vertex 8.450041e-001 6.000000e+001 -4.928080e+000
         vertex 8.450041e-001 0.000000e+000 -4.928080e+000
         vertex 1.665699e+000 0.000000e+000 -4.714387e+000
      endloop
   endfacet
   facet normal -2.793211e-001 0.000000e+000 9.601977e-001
      outer loop
         vertex 8.450041e-001 6.000000e+001 -4.928080e+000
         vertex 1.665699e+000 0.000000e+000 -4.714387e+000
         vertex 1.665699e+000 6.000000e+001 -4.714387e+000
      endloop
   endfacet
   facet normal -3.858936e-001 0.000000e+000 9.225433e-001
      outer loop
         vertex 1.665699e+000 6.000000e+001 -4.714387e+000
         vertex 1.665699e+000 0.000000e+000 -4.714387e+000
         vertex 2.438475e+000 0.000000e+000 -4.365071e+000
      endloop
   endfacet
   facet normal -4.375775e-001 0.000000e+000 8.991807e-001
      outer loop
         vertex 1.665699e+000 6.000000e+001 -4.714387e+000
         vertex 2.438475e+000 0.000000e+000 -4.365071e+000
         vertex 2.438475e+000 6.000000e+001 -4.365071e+000
      endloop
   endfacet
   facet normal -5.362535e-001 0.000000e+000 8.440570e-001
      outer loop
         vertex 2.438475e+000 6.000000e+001 -4.365071e+000
         vertex 2.438475e+000 0.000000e+000 -4.365071e+000
         vertex 3.141100e+000 0.000000e+000 -3.890179e+000
      endloop
   endfacet
   facet normal -5.832456e-001 0.000000e+000 8.122959e-001
      outer loop
         vertex 2.438475e+000 6.000000e+001 -4.365071e+000
         vertex 3.141100e+000 0.000000e+000 -3.890179e+000
         vertex 3.141100e+000 6.000000e+001 -3.890179e+000
      endloop
   endfacet
   facet normal -6.711863e-001 0.000000e+000 7.412888e-001
      outer loop
         vertex 3.141100e+000 6.000000e+001 -3.890179e+000
         vertex 3.141100e+000 0.000000e+000 -3.890179e+000
         vertex 3.753361e+000 0.000000e+000 -3.303374e+000
      endloop
   endfacet
   facet normal -7.121348e-001 0.000000e+000 7.020428e-001
      outer loop
         vertex 3.141100e+000 6.000000e+001 -3.890179e+000
         vertex 3.753361e+000 0.000000e+000 -3.303374e+000
         vertex 3.753361e+000 6.000000e+001 -3.303374e+000
      endloop
   endfacet
   facet normal -7.868103e-001 0.000000e+000 6.171949e-001
      outer loop
         vertex 3.753361e+000 6.000000e+001 -3.303374e+000
         vertex 3.753361e+000 0.000000e+000 -3.303374e+000
         vertex 4.257646e+000 0.000000e+000 -2.621536e+000
      endloop
   endfacet
   facet normal -8.205372e-001 0.000000e+000 5.715931e-001
      outer loop
         vertex 3.753361e+000 6.000000e+001 -3.303374e+000
         vertex 4.257646e+000 0.000000e+000 -2.621536e+000
         vertex 4.257646e+000 6.000000e+001 -2.621536e+000
      endloop
   endfacet
   facet normal -8.797992e-001 0.000000e+000 4.753455e-001
      outer loop
         vertex 4.257646e+000 6.000000e+001 -2.621536e+000
         vertex 4.257646e+000 0.000000e+000 -2.621536e+000
         vertex 4.639445e+000 0.000000e+000 -1.864282e+000
      endloop
   endfacet
   facet normal -9.053342e-001 0.000000e+000 4.246998e-001
      outer loop
         vertex 4.257646e+000 6.000000e+001 -2.621536e+000
         vertex 4.639445e+000 0.000000e+000 -1.864282e+000
         vertex 4.639445e+000 6.000000e+001 -1.864282e+000
      endloop
   endfacet
   facet normal -9.474779e-001 0.000000e+000 3.198213e-001
      outer loop
         vertex 4.639445e+000 6.000000e+001 -1.864282e+000
         vertex 4.639445e+000 0.000000e+000 -1.864282e+000
         vertex 4.887776e+000 0.000000e+000 -1.053396e+000
      endloop
   endfacet
   facet normal -9.640865e-001 0.000000e+000 2.655886e-001
      outer loop
         vertex 4.639445e+000 6.000000e+001 -1.864282e+000
         vertex 4.887776e+000 0.000000e+000 -1.053396e+000
         vertex 4.887776e+000 6.000000e+001 -1.053396e+000
      endloop
   endfacet
   facet normal -9.878993e-001 0.000000e+000 1.550965e-001
      outer loop
         vertex 4.887776e+000 6.000000e+001 -1.053396e+000
         vertex 4.887776e+000 0.000000e+000 -1.053396e+000
         vertex 4.995495e+000 0.000000e+000 -2.122060e-001
      endloop
   endfacet
   facet normal -9.951036e-001 0.000000e+000 9.883699e-002
      outer loop
         vertex 4.887776e+000 6.000000e+001 -1.053396e+000
         vertex 4.995495e+000 0.000000e+000 -2.122060e-001
         vertex 4.995495e+000 6.000000e+001 -2.122060e-001
      endloop
   endfacet
   facet normal -9.999007e-001 0.000000e+000 -1.409025e-002
      outer loop
         vertex 4.995495e+000 6.000000e+001 -2.122060e-001
         vertex 4.995495e+000 0.000000e+000 -2.122060e-001
         vertex 4.959502e+000 0.000000e+000 6.350891e-001
      endloop
   endfacet
   facet normal -9.974935e-001 0.000000e+000 -7.075802e-002
      outer loop
         vertex 4.995495e+000 6.000000e+001 -2.122060e-001
         vertex 4.959502e+000 0.000000e+000 6.350891e-001
         vertex 4.959502e+000 6.000000e+001 6.350891e-001
      endloop
   endfacet
   facet normal -9.831368e-001 0.000000e+000 -1.828716e-001
      outer loop
         vertex 4.959502e+000 6.000000e+001 6.350891e-001
         vertex 4.959502e+000 0.000000e+000 6.350891e-001
         vertex 4.780834e+000 0.000000e+000 1.464114e+000
      endloop
   endfacet
   facet normal -9.711873e-001 0.000000e+000 -2.383175e-001
      outer loop
         vertex 4.959502e+000 6.000000e+001 6.350891e-001
         vertex 4.780834e+000 0.000000e+000 1.464114e+000
         vertex 4.780834e+000 6.000000e+001 1.464114e+000
      endloop
   endfacet
   facet normal -9.380898e-001 0.000000e+000 -3.463921e-001
      outer loop
         vertex 4.780834e+000 6.000000e+001 1.464114e+000
         vertex 4.780834e+000 0.000000e+000 1.464114e+000
         vertex 4.464629e+000 0.000000e+000 2.251019e+000
      endloop
   endfacet
   facet normal -9.169418e-001 0.000000e+000 -3.990209e-001
      outer loop
         vertex 4.780834e+000 6.000000e+001 1.464114e+000
         vertex 4.464629e+000 0.000000e+000 2.251019e+000
         vertex 4.464629e+000 6.000000e+001 2.251019e+000
      endloop
   endfacet
   facet normal -8.660557e-001 0.000000e+000 -4.999475e-001
      outer loop
         vertex 4.464629e+000 6.000000e+001 2.251019e+000
         vertex 4.464629e+000 0.000000e+000 2.251019e+000
         vertex 4.019986e+000 0.000000e+000 2.973166e+000
      endloop
   endfacet
   facet normal -8.363176e-001 0.000000e+000 -5.482453e-001
      outer loop
         vertex 4.464629e+000 6.000000e+001 2.251019e+000
         vertex 4.019986e+000 0.000000e+000 2.973166e+000
         vertex 4.019986e+000 6.000000e+001 2.973166e+000
      endloop
   endfacet
   facet normal -7.691067e-001 0.000000e+000 -6.391203e-001
      outer loop
         vertex 4.019986e+000 6.000000e+001 2.973166e+000
         vertex 4.019986e+000 0.000000e+000 2.973166e+000
         vertex 3.459694e+000 0.000000e+000 3.609781e+000
      endloop
   endfacet
   facet normal -7.316340e-001 0.000000e+000 -6.816977e-001
      outer loop
         vertex 4.019986e+000 6.000000e+001 2.973166e+000
         vertex 3.459694e+000 0.000000e+000 3.609781e+000
         vertex 3.459694e+000 6.000000e+001 3.609781e+000
      endloop
   endfacet
   facet normal -6.500320e-001 0.000000e+000 -7.599069e-001
      outer loop
         vertex 3.459694e+000 6.000000e+001 3.609781e+000
         vertex 3.459694e+000 0.000000e+000 3.609781e+000
         vertex 2.799874e+000 0.000000e+000 4.142549e+000
      endloop
   endfacet
   facet normal -6.059027e-001 0.000000e+000 -7.955388e-001
      outer loop
         vertex 3.459694e+000 6.000000e+001 3.609781e+000
         vertex 2.799874e+000 0.000000e+000 4.142549e+000
         vertex 2.799874e+000 6.000000e+001 4.142549e+000
      endloop
   endfacet
   facet normal -5.122570e-001 0.000000e+000 -8.588322e-001
      outer loop
         vertex 2.799874e+000 6.000000e+001 4.142549e+000
         vertex 2.799874e+000 0.000000e+000 4.142549e+000
         vertex 2.059506e+000 0.000000e+000 4.556142e+000
      endloop
   endfacet
   facet normal -4.627406e-001 0.000000e+000 -8.864937e-001
      outer loop
         vertex 2.799874e+000 6.000000e+001 4.142549e+000
         vertex 2.059506e+000 0.000000e+000 4.556142e+000
         vertex 2.059506e+000 6.000000e+001 4.556142e+000
      endloop
   endfacet
   facet normal -3.597453e-001 0.000000e+000 -9.330506e-001
      outer loop
         vertex 2.059506e+000 6.000000e+001 4.556142e+000
         vertex 2.059506e+000 0.000000e+000 4.556142e+000
         vertex 1.259890e+000 0.000000e+000 4.838665e+000
      endloop
   endfacet
   facet normal -3.062663e-001 0.000000e+000 -9.519458e-001
      outer loop
         vertex 2.059506e+000 6.000000e+001 4.556142e+000
         vertex 1.259890e+000 0.000000e+000 4.838665e+000
         vertex 1.259890e+000 6.000000e+001 4.838665e+000
      endloop
   endfacet
   facet normal -1.968844e-001 0.000000e+000 -9.804267e-001
      outer loop
         vertex 1.259890e+000 6.000000e+001 4.838665e+000
         vertex 1.259890e+000 0.000000e+000 4.838665e+000
         vertex 4.240296e-001 0.000000e+000 4.981987e+000
      endloop
   endfacet
   facet normal -1.409813e-001 0.000000e+000 -9.900123e-001
      outer loop
         vertex 1.259890e+000 6.000000e+001 4.838665e+000
         vertex 4.240296e-001 0.000000e+000 4.981987e+000
         vertex 4.240296e-001 6.000000e+001 4.981987e+000
      endloop
   endfacet
   facet normal -5.658260e-002 0.000000e+000 -9.983979e-001
      outer loop
         vertex 4.240296e-001 6.000000e+001 4.981987e+000
         vertex 4.240296e-001 0.000000e+000 4.981987e+000
         vertex 6.123234e-016 6.000000e+001 5.000000e+000
      endloop
   endfacet
   facet normal 0.000000e+000 1.000000e+000 0.000000e+000
      outer loop
         vertex -2.799874e+000 0.000000e+000 4.142549e+000
         vertex -1.224647e-015 0.000000e+000 -5.000000e+000
         vertex -8.450041e-001 0.000000e+000 -4.928080e+000
      endloop
   endfacet
   facet normal 0.000000e+000 1.000000e+000 0.000000e+000
      outer loop
         vertex -2.799874e+000 0.000000e+000 4.142549e+000
         vertex -2.059506e+000 0.000000e+000 4.556142e+000
         vertex -1.224647e-015 0.000000e+000 -5.000000e+000
      endloop
   endfacet
   facet normal 0.000000e+000 1.000000e+000 0.000000e+000
      outer loop
         vertex -1.224647e-015 0.000000e+000 -5.000000e+000
         vertex -2.059506e+000 0.000000e+000 4.556142e+000
         vertex -1.259890e+000 0.000000e+000 4.838665e+000
      endloop
   endfacet
   facet normal 0.000000e+000 1.000000e+000 0.000000e+000
      outer loop
         vertex -1.224647e-015 0.000000e+000 -5.000000e+000
         vertex -1.259890e+000 0.000000e+000 4.838665e+000
         vertex -4.240296e-001 0.000000e+000 4.981987e+000
      endloop
   endfacet
   facet normal 0.000000e+000 1.000000e+000 0.000000e+000
      outer loop
         vertex -4.240296e-001 0.000000e+000 4.981987e+000
         vertex 6.123234e-016 0.000000e+000 5.000000e+000
         vertex -1.224647e-015 0.000000e+000 -5.000000e+000
      endloop
   endfacet
   facet normal 0.000000e+000 1.000000e+000 0.000000e+000
      outer loop
         vertex -1.224647e-015 0.000000e+000 -5.000000e+000
         vertex 6.123234e-016 0.000000e+000 5.000000e+000
         vertex 4.240296e-001 0.000000e+000 4.981987e+000
      endloop
   endfacet
   facet normal 0.000000e+000 1.000000e+000 0.000000e+000
      outer loop
         vertex -1.224647e-015 0.000000e+000 -5.000000e+000
         vertex 4.240296e-001 0.000000e+000 4.981987e+000
         vertex 1.259890e+000 0.000000e+000 4.838665e+000
      endloop
   endfacet
   facet normal 0.000000e+000 1.000000e+000 0.000000e+000
      outer loop
         vertex 4.887776e+000 0.000000e+000 -1.053396e+000
         vertex 4.639445e+000 0.000000e+000 -1.864282e+000
         vertex 4.257646e+000 0.000000e+000 -2.621536e+000
      endloop
   endfacet
   facet normal 0.000000e+000 1.000000e+000 0.000000e+000
      outer loop
         vertex 1.259890e+000 0.000000e+000 4.838665e+000
         vertex 2.059506e+000 0.000000e+000 4.556142e+000
         vertex -1.224647e-015 0.000000e+000 -5.000000e+000
      endloop
   endfacet
   facet normal 0.000000e+000 1.000000e+000 0.000000e+000
      outer loop
         vertex -1.224647e-015 0.000000e+000 -5.000000e+000
         vertex 2.059506e+000 0.000000e+000 4.556142e+000
         vertex 2.799874e+000 0.000000e+000 4.142549e+000
      endloop
   endfacet
   facet normal 0.000000e+000 1.000000e+000 0.000000e+000
      outer loop
         vertex -1.224647e-015 0.000000e+000 -5.000000e+000
         vertex 2.799874e+000 0.000000e+000 4.142549e+000
         vertex 3.459694e+000 0.000000e+000 3.609781e+000
      endloop
   endfacet
   facet normal 0.000000e+000 1.000000e+000 0.000000e+000
      outer loop
         vertex 3.141100e+000 0.000000e+000 -3.890179e+000
         vertex 2.438475e+000 0.000000e+000 -4.365071e+000
         vertex 4.995495e+000 0.000000e+000 -2.122060e-001
      endloop
   endfacet
   facet normal 0.000000e+000 1.000000e+000 0.000000e+000
      outer loop
         vertex 4.995495e+000 0.000000e+000 -2.122060e-001
         vertex 2.438475e+000 0.000000e+000 -4.365071e+000
         vertex 1.665699e+000 0.000000e+000 -4.714387e+000
      endloop
   endfacet
   facet normal 0.000000e+000 1.000000e+000 0.000000e+000
      outer loop
         vertex 3.459694e+000 0.000000e+000 3.609781e+000
         vertex 4.019986e+000 0.000000e+000 2.973166e+000
         vertex -1.224647e-015 0.000000e+000 -5.000000e+000
      endloop
   endfacet
   facet normal 0.000000e+000 1.000000e+000 0.000000e+000
      outer loop
         vertex -1.224647e-015 0.000000e+000 -5.000000e+000
         vertex 4.019986e+000 0.000000e+000 2.973166e+000
         vertex 4.464629e+000 0.000000e+000 2.251019e+000
      endloop
   endfacet
   facet normal 0.000000e+000 1.000000e+000 0.000000e+000
      outer loop
         vertex -1.224647e-015 0.000000e+000 -5.000000e+000
         vertex 4.464629e+000 0.000000e+000 2.251019e+000
         vertex 4.780834e+000 0.000000e+000 1.464114e+000
      endloop
   endfacet
   facet normal 0.000000e+000 1.000000e+000 0.000000e+000
      outer loop
         vertex 1.665699e+000 0.000000e+000 -4.714387e+000
         vertex 8.450041e-001 0.000000e+000 -4.928080e+000
         vertex 4.995495e+000 0.000000e+000 -2.122060e-001
      endloop
   endfacet
   facet normal 0.000000e+000 1.000000e+000 0.000000e+000
      outer loop
         vertex 4.995495e+000 0.000000e+000 -2.122060e-001
         vertex 8.450041e-001 0.000000e+000 -4.928080e+000
         vertex -1.224647e-015 0.000000e+000 -5.000000e+000
      endloop
   endfacet
   facet normal 0.000000e+000 1.000000e+000 0.000000e+000
      outer loop
         vertex 4.995495e+000 0.000000e+000 -2.122060e-001
         vertex -1.224647e-015 0.000000e+000 -5.000000e+000
         vertex 4.959502e+000 0.000000e+000 6.350891e-001
      endloop
   endfacet
   facet normal 0.000000e+000 1.000000e+000 0.000000e+000
      outer loop
         vertex 4.959502e+000 0.000000e+000 6.350891e-001
         vertex -1.224647e-015 0.000000e+000 -5.000000e+000
         vertex 4.780834e+000 0.000000e+000 1.464114e+000
      endloop
   endfacet
   facet normal 0.000000e+000 1.000000e+000 0.000000e+000
      outer loop
         vertex 4.887776e+000 0.000000e+000 -1.053396e+000
         vertex 4.257646e+000 0.000000e+000 -2.621536e+000
         vertex 4.995495e+000 0.000000e+000 -2.122060e-001
      endloop
   endfacet
   facet normal 0.000000e+000 1.000000e+000 0.000000e+000
      outer loop
         vertex 4.995495e+000 0.000000e+000 -2.122060e-001
         vertex 4.257646e+000 0.000000e+000 -2.621536e+000
         vertex 3.753361e+000 0.000000e+000 -3.303374e+000
      endloop
   endfacet
   facet normal 0.000000e+000 1.000000e+000 0.000000e+000
      outer loop
         vertex 4.995495e+000 0.000000e+000 -2.122060e-001
         vertex 3.753361e+000 0.000000e+000 -3.303374e+000
         vertex 3.141100e+000 0.000000e+000 -3.890179e+000
      endloop
   endfacet
   facet normal 0.000000e+000 1.000000e+000 0.000000e+000
      outer loop
         vertex -8.450041e-001 0.000000e+000 -4.928080e+000
         vertex -1.665699e+000 0.000000e+000 -4.714387e+000
         vertex -2.799874e+000 0.000000e+000 4.142549e+000
      endloop
   endfacet
   facet normal 0.000000e+000 1.000000e+000 0.000000e+000
      outer loop
         vertex -2.799874e+000 0.000000e+000 4.142549e+000
         vertex -1.665699e+000 0.000000e+000 -4.714387e+000
         vertex -2.438475e+000 0.000000e+000 -4.365071e+000
      endloop
   endfacet
   facet normal 0.000000e+000 1.000000e+000 0.000000e+000
      outer loop
         vertex -2.799874e+000 0.000000e+000 4.142549e+000
         vertex -2.438475e+000 0.000000e+000 -4.365071e+000
         vertex -3.141100e+000 0.000000e+000 -3.890179e+000
      endloop
   endfacet
   facet normal 0.000000e+000 1.000000e+000 0.000000e+000
      outer loop
         vertex -4.639445e+000 0.000000e+000 -1.864282e+000
         vertex -4.887776e+000 0.000000e+000 -1.053396e+000
         vertex -4.780834e+000 0.000000e+000 1.464114e+000
      endloop
   endfacet
   facet normal 0.000000e+000 1.000000e+000 0.000000e+000
      outer loop
         vertex -4.780834e+000 0.000000e+000 1.464114e+000
         vertex -4.887776e+000 0.000000e+000 -1.053396e+000
         vertex -4.995495e+000 0.000000e+000 -2.122060e-001
      endloop
   endfacet
   facet normal 0.000000e+000 1.000000e+000 0.000000e+000
      outer loop
         vertex -4.780834e+000 0.000000e+000 1.464114e+000
         vertex -4.995495e+000 0.000000e+000 -2.122060e-001
         vertex -4.959502e+000 0.000000e+000 6.350891e-001
      endloop
   endfacet
   facet normal 0.000000e+000 1.000000e+000 0.000000e+000
      outer loop
         vertex -4.639445e+000 0.000000e+000 -1.864282e+000
         vertex -4.780834e+000 0.000000e+000 1.464114e+000
         vertex -4.257646e+000 0.000000e+000 -2.621536e+000
      endloop
   endfacet
   facet normal 0.000000e+000 1.000000e+000 0.000000e+000
      outer loop
         vertex -4.257646e+000 0.000000e+000 -2.621536e+000
         vertex -4.780834e+000 0.000000e+000 1.464114e+000
         vertex -4.464629e+000 0.000000e+000 2.251019e+000
      endloop
   endfacet
   facet normal 0.000000e+000 1.000000e+000 0.000000e+000
      outer loop
         vertex -4.257646e+000 0.000000e+000 -2.621536e+000
         vertex -4.464629e+000 0.000000e+000 2.251019e+000
         vertex -4.019986e+000 0.000000e+000 2.973166e+000
      endloop
   endfacet
   facet normal 0.000000e+000 1.000000e+000 0.000000e+000
      outer loop
         vertex -3.141100e+000 0.000000e+000 -3.890179e+000
         vertex -3.753361e+000 0.000000e+000 -3.303374e+000
         vertex -2.799874e+000 0.000000e+000 4.142549e+000
      endloop
   endfacet
   facet normal 0.000000e+000 1.000000e+000 0.000000e+000
      outer loop
         vertex -2.799874e+000 0.000000e+000 4.142549e+000
         vertex -3.753361e+000 0.000000e+000 -3.303374e+000
         vertex -4.257646e+000 0.000000e+000 -2.621536e+000
      endloop
   endfacet
   facet normal 0.000000e+000 1.000000e+000 0.000000e+000
      outer loop
         vertex -2.799874e+000 0.000000e+000 4.142549e+000
         vertex -4.257646e+000 0.000000e+000 -2.621536e+000
         vertex -3.459694e+000 0.000000e+000 3.609781e+000
      endloop
   endfacet
   facet normal 0.000000e+000 1.000000e+000 0.000000e+000
      outer loop
         vertex -3.459694e+000 0.000000e+000 3.609781e+000
         vertex -4.257646e+000 0.000000e+000 -2.621536e+000
         vertex -4.019986e+000 0.000000e+000 2.973166e+000
      endloop
   endfacet
endsolid