solid Plano_Valor predeterminado_sldprt
   facet normal 1.000000e+000 0.000000e+000 -1.387779e-016
      outer loop
         vertex 5.000000e+001 2.000000e+000 -5.000000e+001
         vertex 5.000000e+001 2.000000e+000 5.000000e+001
         vertex 5.000000e+001 0.000000e+000 -5.000000e+001
      endloop
   endfacet
   facet normal 1.000000e+000 0.000000e+000 -1.387779e-016
      outer loop
         vertex 5.000000e+001 0.000000e+000 -5.000000e+001
         vertex 5.000000e+001 2.000000e+000 5.000000e+001
         vertex 5.000000e+001 0.000000e+000 5.000000e+001
      endloop
   endfacet
   facet normal 0.000000e+000 0.000000e+000 -1.000000e+000
      outer loop
         vertex -5.000000e+001 2.000000e+000 -5.000000e+001
         vertex 5.000000e+001 2.000000e+000 -5.000000e+001
         vertex -5.000000e+001 0.000000e+000 -5.000000e+001
      endloop
   endfacet
   facet normal 0.000000e+000 0.000000e+000 -1.000000e+000
      outer loop
         vertex -5.000000e+001 0.000000e+000 -5.000000e+001
         vertex 5.000000e+001 2.000000e+000 -5.000000e+001
         vertex 5.000000e+001 0.000000e+000 -5.000000e+001
      endloop
   endfacet
   facet normal -1.000000e+000 0.000000e+000 1.387779e-016
      outer loop
         vertex -5.000000e+001 2.000000e+000 5.000000e+001
         vertex -5.000000e+001 2.000000e+000 -5.000000e+001
         vertex -5.000000e+001 0.000000e+000 5.000000e+001
      endloop
   endfacet
   facet normal -1.000000e+000 0.000000e+000 1.387779e-016
      outer loop
         vertex -5.000000e+001 0.000000e+000 5.000000e+001
         vertex -5.000000e+001 2.000000e+000 -5.000000e+001
         vertex -5.000000e+001 0.000000e+000 -5.000000e+001
      endloop
   endfacet
   facet normal 0.000000e+000 0.000000e+000 1.000000e+000
      outer loop
         vertex 5.000000e+001 2.000000e+000 5.000000e+001
         vertex -5.000000e+001 2.000000e+000 5.000000e+001
         vertex 5.000000e+001 0.000000e+000 5.000000e+001
      endloop
   endfacet
   facet normal 0.000000e+000 0.000000e+000 1.000000e+000
      outer loop
         vertex 5.000000e+001 0.000000e+000 5.000000e+001
         vertex -5.000000e+001 2.000000e+000 5.000000e+001
         vertex -5.000000e+001 0.000000e+000 5.000000e+001
      endloop
   endfacet
   facet normal 0.000000e+000 1.000000e+000 0.000000e+000
      outer loop
         vertex -5.000000e+001 2.000000e+000 -5.000000e+001
         vertex -5.000000e+001 2.000000e+000 5.000000e+001
         vertex 5.000000e+001 2.000000e+000 -5.000000e+001
      endloop
   endfacet
   facet normal 0.000000e+000 1.000000e+000 0.000000e+000
      outer loop
         vertex 5.000000e+001 2.000000e+000 -5.000000e+001
         vertex -5.000000e+001 2.000000e+000 5.000000e+001
         vertex 5.000000e+001 2.000000e+000 5.000000e+001
      endloop
   endfacet
   facet normal 0.000000e+000 -1.000000e+000 0.000000e+000
      outer loop
         vertex -5.000000e+001 0.000000e+000 5.000000e+001
         vertex -5.000000e+001 0.000000e+000 -5.000000e+001
         vertex 5.000000e+001 0.000000e+000 5.000000e+001
      endloop
   endfacet
   facet normal 0.000000e+000 -1.000000e+000 0.000000e+000
      outer loop
         vertex 5.000000e+001 0.000000e+000 5.000000e+001
         vertex -5.000000e+001 0.000000e+000 -5.000000e+001
         vertex 5.000000e+001 0.000000e+000 -5.000000e+001
      endloop
   endfacet
endsolid